<mxfile host="app.diagrams.net" modified="2023-09-19T10:31:37.718Z" agent="Mozilla/5.0 (Windows NT 10.0; Win64; x64; rv:109.0) Gecko/20100101 Firefox/117.0" etag="uHk3CWUuFLdggIYWQaTN" version="21.7.5" type="google">
  <diagram name="Page-1" id="29GPRNuBi7XQMdCKFwGW">
    <mxGraphModel grid="1" page="1" gridSize="10" guides="1" tooltips="1" connect="1" arrows="1" fold="1" pageScale="1" pageWidth="2150" pageHeight="1200" math="0" shadow="0">
      <root>
        <mxCell id="0" />
        <mxCell id="1" parent="0" />
        <mxCell id="KckVIJdAY4vBUgBkro1C-2" value="User" style="shape=table;startSize=30;container=1;collapsible=1;childLayout=tableLayout;fixedRows=1;rowLines=0;fontStyle=1;align=center;resizeLast=1;html=1;labelBackgroundColor=none;fillColor=#ffe6cc;strokeColor=#d79b00;rounded=1;strokeWidth=2;fontFamily=Georgia;" vertex="1" parent="1">
          <mxGeometry x="720" y="480" width="180" height="270" as="geometry" />
        </mxCell>
        <mxCell id="KckVIJdAY4vBUgBkro1C-3" value="" style="shape=tableRow;horizontal=0;startSize=0;swimlaneHead=0;swimlaneBody=0;fillColor=none;collapsible=0;dropTarget=0;points=[[0,0.5],[1,0.5]];portConstraint=eastwest;top=0;left=0;right=0;bottom=1;labelBackgroundColor=none;strokeColor=#788AA3;fontColor=#46495D;rounded=1;fontFamily=Georgia;" vertex="1" parent="KckVIJdAY4vBUgBkro1C-2">
          <mxGeometry y="30" width="180" height="30" as="geometry" />
        </mxCell>
        <mxCell id="KckVIJdAY4vBUgBkro1C-4" value="PK" style="shape=partialRectangle;connectable=0;fillColor=none;top=0;left=0;bottom=0;right=0;fontStyle=1;overflow=hidden;whiteSpace=wrap;html=1;labelBackgroundColor=none;strokeColor=#788AA3;fontColor=#46495D;rounded=1;fontFamily=Georgia;" vertex="1" parent="KckVIJdAY4vBUgBkro1C-3">
          <mxGeometry width="30" height="30" as="geometry">
            <mxRectangle width="30" height="30" as="alternateBounds" />
          </mxGeometry>
        </mxCell>
        <mxCell id="KckVIJdAY4vBUgBkro1C-5" value="user_id" style="shape=partialRectangle;connectable=0;fillColor=none;top=0;left=0;bottom=0;right=0;align=left;spacingLeft=6;fontStyle=5;overflow=hidden;whiteSpace=wrap;html=1;labelBackgroundColor=none;strokeColor=#788AA3;fontColor=#46495D;rounded=1;strokeWidth=0;fontFamily=Georgia;" vertex="1" parent="KckVIJdAY4vBUgBkro1C-3">
          <mxGeometry x="30" width="150" height="30" as="geometry">
            <mxRectangle width="150" height="30" as="alternateBounds" />
          </mxGeometry>
        </mxCell>
        <mxCell id="KckVIJdAY4vBUgBkro1C-6" value="" style="shape=tableRow;horizontal=0;startSize=0;swimlaneHead=0;swimlaneBody=0;fillColor=none;collapsible=0;dropTarget=0;points=[[0,0.5],[1,0.5]];portConstraint=eastwest;top=0;left=0;right=0;bottom=0;labelBackgroundColor=none;strokeColor=#788AA3;fontColor=#46495D;rounded=1;fontFamily=Georgia;" vertex="1" parent="KckVIJdAY4vBUgBkro1C-2">
          <mxGeometry y="60" width="180" height="30" as="geometry" />
        </mxCell>
        <mxCell id="KckVIJdAY4vBUgBkro1C-7" value="" style="shape=partialRectangle;connectable=0;fillColor=none;top=0;left=0;bottom=0;right=0;editable=1;overflow=hidden;whiteSpace=wrap;html=1;labelBackgroundColor=none;strokeColor=#788AA3;fontColor=#46495D;rounded=1;fontFamily=Georgia;" vertex="1" parent="KckVIJdAY4vBUgBkro1C-6">
          <mxGeometry width="30" height="30" as="geometry">
            <mxRectangle width="30" height="30" as="alternateBounds" />
          </mxGeometry>
        </mxCell>
        <mxCell id="KckVIJdAY4vBUgBkro1C-8" value="fullname" style="shape=partialRectangle;connectable=0;fillColor=none;top=0;left=0;bottom=0;right=0;align=left;spacingLeft=6;overflow=hidden;whiteSpace=wrap;html=1;labelBackgroundColor=none;strokeColor=#788AA3;fontColor=#46495D;rounded=1;fontFamily=Georgia;" vertex="1" parent="KckVIJdAY4vBUgBkro1C-6">
          <mxGeometry x="30" width="150" height="30" as="geometry">
            <mxRectangle width="150" height="30" as="alternateBounds" />
          </mxGeometry>
        </mxCell>
        <mxCell id="l-lP7IGFL-ez6UWyuf9_-1" style="shape=tableRow;horizontal=0;startSize=0;swimlaneHead=0;swimlaneBody=0;fillColor=none;collapsible=0;dropTarget=0;points=[[0,0.5],[1,0.5]];portConstraint=eastwest;top=0;left=0;right=0;bottom=0;labelBackgroundColor=none;strokeColor=#788AA3;fontColor=#46495D;rounded=1;fontFamily=Georgia;" vertex="1" parent="KckVIJdAY4vBUgBkro1C-2">
          <mxGeometry y="90" width="180" height="30" as="geometry" />
        </mxCell>
        <mxCell id="l-lP7IGFL-ez6UWyuf9_-2" style="shape=partialRectangle;connectable=0;fillColor=none;top=0;left=0;bottom=0;right=0;editable=1;overflow=hidden;whiteSpace=wrap;html=1;labelBackgroundColor=none;strokeColor=#788AA3;fontColor=#46495D;rounded=1;fontFamily=Georgia;" vertex="1" parent="l-lP7IGFL-ez6UWyuf9_-1">
          <mxGeometry width="30" height="30" as="geometry">
            <mxRectangle width="30" height="30" as="alternateBounds" />
          </mxGeometry>
        </mxCell>
        <mxCell id="l-lP7IGFL-ez6UWyuf9_-3" value="username" style="shape=partialRectangle;connectable=0;fillColor=none;top=0;left=0;bottom=0;right=0;align=left;spacingLeft=6;overflow=hidden;whiteSpace=wrap;html=1;labelBackgroundColor=none;strokeColor=#788AA3;fontColor=#46495D;rounded=1;fontFamily=Georgia;" vertex="1" parent="l-lP7IGFL-ez6UWyuf9_-1">
          <mxGeometry x="30" width="150" height="30" as="geometry">
            <mxRectangle width="150" height="30" as="alternateBounds" />
          </mxGeometry>
        </mxCell>
        <mxCell id="KckVIJdAY4vBUgBkro1C-9" value="" style="shape=tableRow;horizontal=0;startSize=0;swimlaneHead=0;swimlaneBody=0;fillColor=none;collapsible=0;dropTarget=0;points=[[0,0.5],[1,0.5]];portConstraint=eastwest;top=0;left=0;right=0;bottom=0;labelBackgroundColor=none;strokeColor=#788AA3;fontColor=#46495D;rounded=1;fontFamily=Georgia;" vertex="1" parent="KckVIJdAY4vBUgBkro1C-2">
          <mxGeometry y="120" width="180" height="30" as="geometry" />
        </mxCell>
        <mxCell id="KckVIJdAY4vBUgBkro1C-10" value="" style="shape=partialRectangle;connectable=0;fillColor=none;top=0;left=0;bottom=0;right=0;editable=1;overflow=hidden;whiteSpace=wrap;html=1;labelBackgroundColor=none;strokeColor=#457B9D;fontColor=#46495D;rounded=1;fontFamily=Georgia;" vertex="1" parent="KckVIJdAY4vBUgBkro1C-9">
          <mxGeometry width="30" height="30" as="geometry">
            <mxRectangle width="30" height="30" as="alternateBounds" />
          </mxGeometry>
        </mxCell>
        <mxCell id="KckVIJdAY4vBUgBkro1C-11" value="image" style="shape=partialRectangle;connectable=0;fillColor=none;top=0;left=0;bottom=0;right=0;align=left;spacingLeft=6;overflow=hidden;whiteSpace=wrap;html=1;labelBackgroundColor=none;strokeColor=#788AA3;fontColor=#46495D;rounded=1;fontFamily=Georgia;" vertex="1" parent="KckVIJdAY4vBUgBkro1C-9">
          <mxGeometry x="30" width="150" height="30" as="geometry">
            <mxRectangle width="150" height="30" as="alternateBounds" />
          </mxGeometry>
        </mxCell>
        <mxCell id="KckVIJdAY4vBUgBkro1C-12" value="" style="shape=tableRow;horizontal=0;startSize=0;swimlaneHead=0;swimlaneBody=0;fillColor=none;collapsible=0;dropTarget=0;points=[[0,0.5],[1,0.5]];portConstraint=eastwest;top=0;left=0;right=0;bottom=0;labelBackgroundColor=none;strokeColor=#788AA3;fontColor=#46495D;rounded=1;fontFamily=Georgia;" vertex="1" parent="KckVIJdAY4vBUgBkro1C-2">
          <mxGeometry y="150" width="180" height="30" as="geometry" />
        </mxCell>
        <mxCell id="KckVIJdAY4vBUgBkro1C-13" value="" style="shape=partialRectangle;connectable=0;fillColor=none;top=0;left=0;bottom=0;right=0;editable=1;overflow=hidden;whiteSpace=wrap;html=1;labelBackgroundColor=none;strokeColor=#788AA3;fontColor=#46495D;rounded=1;fontFamily=Georgia;" vertex="1" parent="KckVIJdAY4vBUgBkro1C-12">
          <mxGeometry width="30" height="30" as="geometry">
            <mxRectangle width="30" height="30" as="alternateBounds" />
          </mxGeometry>
        </mxCell>
        <mxCell id="KckVIJdAY4vBUgBkro1C-14" value="location" style="shape=partialRectangle;connectable=0;fillColor=none;top=0;left=0;bottom=0;right=0;align=left;spacingLeft=6;overflow=hidden;whiteSpace=wrap;html=1;labelBackgroundColor=none;strokeColor=#788AA3;fontColor=#46495D;rounded=1;fontFamily=Georgia;" vertex="1" parent="KckVIJdAY4vBUgBkro1C-12">
          <mxGeometry x="30" width="150" height="30" as="geometry">
            <mxRectangle width="150" height="30" as="alternateBounds" />
          </mxGeometry>
        </mxCell>
        <mxCell id="CXDuRIByjEuDGlNMDxh7-191" style="shape=tableRow;horizontal=0;startSize=0;swimlaneHead=0;swimlaneBody=0;fillColor=none;collapsible=0;dropTarget=0;points=[[0,0.5],[1,0.5]];portConstraint=eastwest;top=0;left=0;right=0;bottom=0;labelBackgroundColor=none;strokeColor=#788AA3;fontColor=#46495D;rounded=1;fontFamily=Georgia;" vertex="1" parent="KckVIJdAY4vBUgBkro1C-2">
          <mxGeometry y="180" width="180" height="30" as="geometry" />
        </mxCell>
        <mxCell id="CXDuRIByjEuDGlNMDxh7-192" style="shape=partialRectangle;connectable=0;fillColor=none;top=0;left=0;bottom=0;right=0;editable=1;overflow=hidden;whiteSpace=wrap;html=1;labelBackgroundColor=none;strokeColor=#788AA3;fontColor=#46495D;rounded=1;fontFamily=Georgia;" vertex="1" parent="CXDuRIByjEuDGlNMDxh7-191">
          <mxGeometry width="30" height="30" as="geometry">
            <mxRectangle width="30" height="30" as="alternateBounds" />
          </mxGeometry>
        </mxCell>
        <mxCell id="CXDuRIByjEuDGlNMDxh7-193" value="gender" style="shape=partialRectangle;connectable=0;fillColor=none;top=0;left=0;bottom=0;right=0;align=left;spacingLeft=6;overflow=hidden;whiteSpace=wrap;html=1;labelBackgroundColor=none;strokeColor=#788AA3;fontColor=#46495D;rounded=1;fontFamily=Georgia;" vertex="1" parent="CXDuRIByjEuDGlNMDxh7-191">
          <mxGeometry x="30" width="150" height="30" as="geometry">
            <mxRectangle width="150" height="30" as="alternateBounds" />
          </mxGeometry>
        </mxCell>
        <mxCell id="CXDuRIByjEuDGlNMDxh7-194" style="shape=tableRow;horizontal=0;startSize=0;swimlaneHead=0;swimlaneBody=0;fillColor=none;collapsible=0;dropTarget=0;points=[[0,0.5],[1,0.5]];portConstraint=eastwest;top=0;left=0;right=0;bottom=0;labelBackgroundColor=none;strokeColor=#788AA3;fontColor=#46495D;rounded=1;fontFamily=Georgia;" vertex="1" parent="KckVIJdAY4vBUgBkro1C-2">
          <mxGeometry y="210" width="180" height="30" as="geometry" />
        </mxCell>
        <mxCell id="CXDuRIByjEuDGlNMDxh7-195" style="shape=partialRectangle;connectable=0;fillColor=none;top=0;left=0;bottom=0;right=0;editable=1;overflow=hidden;whiteSpace=wrap;html=1;labelBackgroundColor=none;strokeColor=#788AA3;fontColor=#46495D;rounded=1;fontFamily=Georgia;" vertex="1" parent="CXDuRIByjEuDGlNMDxh7-194">
          <mxGeometry width="30" height="30" as="geometry">
            <mxRectangle width="30" height="30" as="alternateBounds" />
          </mxGeometry>
        </mxCell>
        <mxCell id="CXDuRIByjEuDGlNMDxh7-196" value="date_of_birth" style="shape=partialRectangle;connectable=0;fillColor=none;top=0;left=0;bottom=0;right=0;align=left;spacingLeft=6;overflow=hidden;whiteSpace=wrap;html=1;labelBackgroundColor=none;strokeColor=#788AA3;fontColor=#46495D;rounded=1;fontFamily=Georgia;" vertex="1" parent="CXDuRIByjEuDGlNMDxh7-194">
          <mxGeometry x="30" width="150" height="30" as="geometry">
            <mxRectangle width="150" height="30" as="alternateBounds" />
          </mxGeometry>
        </mxCell>
        <mxCell id="MWhFfVhtK0KikScywIRa-1" style="shape=tableRow;horizontal=0;startSize=0;swimlaneHead=0;swimlaneBody=0;fillColor=none;collapsible=0;dropTarget=0;points=[[0,0.5],[1,0.5]];portConstraint=eastwest;top=0;left=0;right=0;bottom=0;labelBackgroundColor=none;strokeColor=#788AA3;fontColor=#46495D;rounded=1;fontFamily=Georgia;" vertex="1" parent="KckVIJdAY4vBUgBkro1C-2">
          <mxGeometry y="240" width="180" height="30" as="geometry" />
        </mxCell>
        <mxCell id="MWhFfVhtK0KikScywIRa-2" style="shape=partialRectangle;connectable=0;fillColor=none;top=0;left=0;bottom=0;right=0;editable=1;overflow=hidden;whiteSpace=wrap;html=1;labelBackgroundColor=none;strokeColor=#788AA3;fontColor=#46495D;rounded=1;fontFamily=Georgia;" vertex="1" parent="MWhFfVhtK0KikScywIRa-1">
          <mxGeometry width="30" height="30" as="geometry">
            <mxRectangle width="30" height="30" as="alternateBounds" />
          </mxGeometry>
        </mxCell>
        <mxCell id="MWhFfVhtK0KikScywIRa-3" value="is_public" style="shape=partialRectangle;connectable=0;fillColor=none;top=0;left=0;bottom=0;right=0;align=left;spacingLeft=6;overflow=hidden;whiteSpace=wrap;html=1;labelBackgroundColor=none;strokeColor=#788AA3;fontColor=#46495D;rounded=1;fontFamily=Georgia;" vertex="1" parent="MWhFfVhtK0KikScywIRa-1">
          <mxGeometry x="30" width="150" height="30" as="geometry">
            <mxRectangle width="150" height="30" as="alternateBounds" />
          </mxGeometry>
        </mxCell>
        <mxCell id="KckVIJdAY4vBUgBkro1C-15" value="Problem" style="shape=table;startSize=30;container=1;collapsible=1;childLayout=tableLayout;fixedRows=1;rowLines=0;fontStyle=1;align=center;resizeLast=1;html=1;labelBackgroundColor=none;fillColor=#dae8fc;strokeColor=#6c8ebf;rounded=1;strokeWidth=2;fontFamily=Georgia;" vertex="1" parent="1">
          <mxGeometry x="1245" y="480" width="180" height="360" as="geometry" />
        </mxCell>
        <mxCell id="KckVIJdAY4vBUgBkro1C-16" value="" style="shape=tableRow;horizontal=0;startSize=0;swimlaneHead=0;swimlaneBody=0;fillColor=none;collapsible=0;dropTarget=0;points=[[0,0.5],[1,0.5]];portConstraint=eastwest;top=0;left=0;right=0;bottom=1;labelBackgroundColor=none;strokeColor=#788AA3;fontColor=#46495D;rounded=1;fontFamily=Georgia;" vertex="1" parent="KckVIJdAY4vBUgBkro1C-15">
          <mxGeometry y="30" width="180" height="30" as="geometry" />
        </mxCell>
        <mxCell id="KckVIJdAY4vBUgBkro1C-17" value="PK" style="shape=partialRectangle;connectable=0;fillColor=none;top=0;left=0;bottom=0;right=0;fontStyle=1;overflow=hidden;whiteSpace=wrap;html=1;labelBackgroundColor=none;strokeColor=#788AA3;fontColor=#46495D;rounded=1;fontFamily=Georgia;" vertex="1" parent="KckVIJdAY4vBUgBkro1C-16">
          <mxGeometry width="30" height="30" as="geometry">
            <mxRectangle width="30" height="30" as="alternateBounds" />
          </mxGeometry>
        </mxCell>
        <mxCell id="KckVIJdAY4vBUgBkro1C-18" value="problem_id" style="shape=partialRectangle;connectable=0;fillColor=none;top=0;left=0;bottom=0;right=0;align=left;spacingLeft=6;fontStyle=5;overflow=hidden;whiteSpace=wrap;html=1;labelBackgroundColor=none;strokeColor=#788AA3;fontColor=#46495D;rounded=1;fontFamily=Georgia;" vertex="1" parent="KckVIJdAY4vBUgBkro1C-16">
          <mxGeometry x="30" width="150" height="30" as="geometry">
            <mxRectangle width="150" height="30" as="alternateBounds" />
          </mxGeometry>
        </mxCell>
        <mxCell id="KckVIJdAY4vBUgBkro1C-19" value="" style="shape=tableRow;horizontal=0;startSize=0;swimlaneHead=0;swimlaneBody=0;fillColor=none;collapsible=0;dropTarget=0;points=[[0,0.5],[1,0.5]];portConstraint=eastwest;top=0;left=0;right=0;bottom=0;labelBackgroundColor=none;strokeColor=#788AA3;fontColor=#46495D;rounded=1;fontFamily=Georgia;" vertex="1" parent="KckVIJdAY4vBUgBkro1C-15">
          <mxGeometry y="60" width="180" height="30" as="geometry" />
        </mxCell>
        <mxCell id="KckVIJdAY4vBUgBkro1C-20" value="&lt;b&gt;FK&lt;/b&gt;" style="shape=partialRectangle;connectable=0;fillColor=none;top=0;left=0;bottom=0;right=0;editable=1;overflow=hidden;whiteSpace=wrap;html=1;labelBackgroundColor=none;strokeColor=#788AA3;fontColor=#46495D;rounded=1;fontFamily=Georgia;" vertex="1" parent="KckVIJdAY4vBUgBkro1C-19">
          <mxGeometry width="30" height="30" as="geometry">
            <mxRectangle width="30" height="30" as="alternateBounds" />
          </mxGeometry>
        </mxCell>
        <mxCell id="KckVIJdAY4vBUgBkro1C-21" value="&lt;b&gt;algorithm_id&lt;/b&gt;" style="shape=partialRectangle;connectable=0;fillColor=none;top=0;left=0;bottom=0;right=0;align=left;spacingLeft=6;overflow=hidden;whiteSpace=wrap;html=1;labelBackgroundColor=none;strokeColor=#788AA3;fontColor=#46495D;rounded=1;fontFamily=Georgia;" vertex="1" parent="KckVIJdAY4vBUgBkro1C-19">
          <mxGeometry x="30" width="150" height="30" as="geometry">
            <mxRectangle width="150" height="30" as="alternateBounds" />
          </mxGeometry>
        </mxCell>
        <mxCell id="AujnL7_Zl_7fxigJMQ9i-23" style="shape=tableRow;horizontal=0;startSize=0;swimlaneHead=0;swimlaneBody=0;fillColor=none;collapsible=0;dropTarget=0;points=[[0,0.5],[1,0.5]];portConstraint=eastwest;top=0;left=0;right=0;bottom=0;labelBackgroundColor=none;strokeColor=#788AA3;fontColor=#46495D;rounded=1;fontFamily=Georgia;" vertex="1" parent="KckVIJdAY4vBUgBkro1C-15">
          <mxGeometry y="90" width="180" height="30" as="geometry" />
        </mxCell>
        <mxCell id="AujnL7_Zl_7fxigJMQ9i-24" value="&lt;b&gt;FK&lt;/b&gt;" style="shape=partialRectangle;connectable=0;fillColor=none;top=0;left=0;bottom=0;right=0;editable=1;overflow=hidden;whiteSpace=wrap;html=1;labelBackgroundColor=none;strokeColor=#788AA3;fontColor=#46495D;rounded=1;fontFamily=Georgia;" vertex="1" parent="AujnL7_Zl_7fxigJMQ9i-23">
          <mxGeometry width="30" height="30" as="geometry">
            <mxRectangle width="30" height="30" as="alternateBounds" />
          </mxGeometry>
        </mxCell>
        <mxCell id="AujnL7_Zl_7fxigJMQ9i-25" value="&lt;b&gt;author_id&lt;/b&gt;" style="shape=partialRectangle;connectable=0;fillColor=none;top=0;left=0;bottom=0;right=0;align=left;spacingLeft=6;overflow=hidden;whiteSpace=wrap;html=1;labelBackgroundColor=none;strokeColor=#788AA3;fontColor=#46495D;rounded=1;fontFamily=Georgia;" vertex="1" parent="AujnL7_Zl_7fxigJMQ9i-23">
          <mxGeometry x="30" width="150" height="30" as="geometry">
            <mxRectangle width="150" height="30" as="alternateBounds" />
          </mxGeometry>
        </mxCell>
        <mxCell id="KckVIJdAY4vBUgBkro1C-22" value="" style="shape=tableRow;horizontal=0;startSize=0;swimlaneHead=0;swimlaneBody=0;fillColor=none;collapsible=0;dropTarget=0;points=[[0,0.5],[1,0.5]];portConstraint=eastwest;top=0;left=0;right=0;bottom=0;labelBackgroundColor=none;strokeColor=#788AA3;fontColor=#46495D;rounded=1;fontFamily=Georgia;" vertex="1" parent="KckVIJdAY4vBUgBkro1C-15">
          <mxGeometry y="120" width="180" height="30" as="geometry" />
        </mxCell>
        <mxCell id="KckVIJdAY4vBUgBkro1C-23" value="" style="shape=partialRectangle;connectable=0;fillColor=none;top=0;left=0;bottom=0;right=0;editable=1;overflow=hidden;whiteSpace=wrap;html=1;labelBackgroundColor=none;strokeColor=#788AA3;fontColor=#46495D;rounded=1;fontFamily=Georgia;" vertex="1" parent="KckVIJdAY4vBUgBkro1C-22">
          <mxGeometry width="30" height="30" as="geometry">
            <mxRectangle width="30" height="30" as="alternateBounds" />
          </mxGeometry>
        </mxCell>
        <mxCell id="KckVIJdAY4vBUgBkro1C-24" value="title" style="shape=partialRectangle;connectable=0;fillColor=none;top=0;left=0;bottom=0;right=0;align=left;spacingLeft=6;overflow=hidden;whiteSpace=wrap;html=1;labelBackgroundColor=none;strokeColor=#788AA3;fontColor=#46495D;rounded=1;fontFamily=Georgia;" vertex="1" parent="KckVIJdAY4vBUgBkro1C-22">
          <mxGeometry x="30" width="150" height="30" as="geometry">
            <mxRectangle width="150" height="30" as="alternateBounds" />
          </mxGeometry>
        </mxCell>
        <mxCell id="KckVIJdAY4vBUgBkro1C-25" value="" style="shape=tableRow;horizontal=0;startSize=0;swimlaneHead=0;swimlaneBody=0;fillColor=none;collapsible=0;dropTarget=0;points=[[0,0.5],[1,0.5]];portConstraint=eastwest;top=0;left=0;right=0;bottom=0;labelBackgroundColor=none;strokeColor=#788AA3;fontColor=#46495D;rounded=1;fontFamily=Georgia;" vertex="1" parent="KckVIJdAY4vBUgBkro1C-15">
          <mxGeometry y="150" width="180" height="30" as="geometry" />
        </mxCell>
        <mxCell id="KckVIJdAY4vBUgBkro1C-26" value="" style="shape=partialRectangle;connectable=0;fillColor=none;top=0;left=0;bottom=0;right=0;editable=1;overflow=hidden;whiteSpace=wrap;html=1;labelBackgroundColor=none;strokeColor=#788AA3;fontColor=#46495D;rounded=1;fontFamily=Georgia;" vertex="1" parent="KckVIJdAY4vBUgBkro1C-25">
          <mxGeometry width="30" height="30" as="geometry">
            <mxRectangle width="30" height="30" as="alternateBounds" />
          </mxGeometry>
        </mxCell>
        <mxCell id="KckVIJdAY4vBUgBkro1C-27" value="description" style="shape=partialRectangle;connectable=0;fillColor=none;top=0;left=0;bottom=0;right=0;align=left;spacingLeft=6;overflow=hidden;whiteSpace=wrap;html=1;labelBackgroundColor=none;strokeColor=#788AA3;fontColor=#46495D;rounded=1;fontFamily=Georgia;" vertex="1" parent="KckVIJdAY4vBUgBkro1C-25">
          <mxGeometry x="30" width="150" height="30" as="geometry">
            <mxRectangle width="150" height="30" as="alternateBounds" />
          </mxGeometry>
        </mxCell>
        <mxCell id="CXDuRIByjEuDGlNMDxh7-265" style="shape=tableRow;horizontal=0;startSize=0;swimlaneHead=0;swimlaneBody=0;fillColor=none;collapsible=0;dropTarget=0;points=[[0,0.5],[1,0.5]];portConstraint=eastwest;top=0;left=0;right=0;bottom=0;labelBackgroundColor=none;strokeColor=#788AA3;fontColor=#46495D;rounded=1;fontFamily=Georgia;" vertex="1" parent="KckVIJdAY4vBUgBkro1C-15">
          <mxGeometry y="180" width="180" height="30" as="geometry" />
        </mxCell>
        <mxCell id="CXDuRIByjEuDGlNMDxh7-266" style="shape=partialRectangle;connectable=0;fillColor=none;top=0;left=0;bottom=0;right=0;editable=1;overflow=hidden;whiteSpace=wrap;html=1;labelBackgroundColor=none;strokeColor=#788AA3;fontColor=#46495D;rounded=1;fontFamily=Georgia;" vertex="1" parent="CXDuRIByjEuDGlNMDxh7-265">
          <mxGeometry width="30" height="30" as="geometry">
            <mxRectangle width="30" height="30" as="alternateBounds" />
          </mxGeometry>
        </mxCell>
        <mxCell id="CXDuRIByjEuDGlNMDxh7-267" value="canvas_data_json" style="shape=partialRectangle;connectable=0;fillColor=none;top=0;left=0;bottom=0;right=0;align=left;spacingLeft=6;overflow=hidden;whiteSpace=wrap;html=1;labelBackgroundColor=none;strokeColor=#788AA3;fontColor=#46495D;rounded=1;fontFamily=Georgia;" vertex="1" parent="CXDuRIByjEuDGlNMDxh7-265">
          <mxGeometry x="30" width="150" height="30" as="geometry">
            <mxRectangle width="150" height="30" as="alternateBounds" />
          </mxGeometry>
        </mxCell>
        <mxCell id="lQcV0rLCLob2I8ij3lz1-31" style="shape=tableRow;horizontal=0;startSize=0;swimlaneHead=0;swimlaneBody=0;fillColor=none;collapsible=0;dropTarget=0;points=[[0,0.5],[1,0.5]];portConstraint=eastwest;top=0;left=0;right=0;bottom=0;labelBackgroundColor=none;strokeColor=#788AA3;fontColor=#46495D;rounded=1;fontFamily=Georgia;" vertex="1" parent="KckVIJdAY4vBUgBkro1C-15">
          <mxGeometry y="210" width="180" height="30" as="geometry" />
        </mxCell>
        <mxCell id="lQcV0rLCLob2I8ij3lz1-32" style="shape=partialRectangle;connectable=0;fillColor=none;top=0;left=0;bottom=0;right=0;editable=1;overflow=hidden;whiteSpace=wrap;html=1;labelBackgroundColor=none;strokeColor=#788AA3;fontColor=#46495D;rounded=1;fontFamily=Georgia;" vertex="1" parent="lQcV0rLCLob2I8ij3lz1-31">
          <mxGeometry width="30" height="30" as="geometry">
            <mxRectangle width="30" height="30" as="alternateBounds" />
          </mxGeometry>
        </mxCell>
        <mxCell id="lQcV0rLCLob2I8ij3lz1-33" value="solution_checker" style="shape=partialRectangle;connectable=0;fillColor=none;top=0;left=0;bottom=0;right=0;align=left;spacingLeft=6;overflow=hidden;whiteSpace=wrap;html=1;labelBackgroundColor=none;strokeColor=#788AA3;fontColor=#46495D;rounded=1;fontFamily=Georgia;" vertex="1" parent="lQcV0rLCLob2I8ij3lz1-31">
          <mxGeometry x="30" width="150" height="30" as="geometry">
            <mxRectangle width="150" height="30" as="alternateBounds" />
          </mxGeometry>
        </mxCell>
        <mxCell id="d5lCtr-DyPGRIG8KfV5i-7" style="shape=tableRow;horizontal=0;startSize=0;swimlaneHead=0;swimlaneBody=0;fillColor=none;collapsible=0;dropTarget=0;points=[[0,0.5],[1,0.5]];portConstraint=eastwest;top=0;left=0;right=0;bottom=0;labelBackgroundColor=none;strokeColor=#788AA3;fontColor=#46495D;rounded=1;fontFamily=Georgia;" vertex="1" parent="KckVIJdAY4vBUgBkro1C-15">
          <mxGeometry y="240" width="180" height="30" as="geometry" />
        </mxCell>
        <mxCell id="d5lCtr-DyPGRIG8KfV5i-8" style="shape=partialRectangle;connectable=0;fillColor=none;top=0;left=0;bottom=0;right=0;editable=1;overflow=hidden;whiteSpace=wrap;html=1;labelBackgroundColor=none;strokeColor=#788AA3;fontColor=#46495D;rounded=1;fontFamily=Georgia;" vertex="1" parent="d5lCtr-DyPGRIG8KfV5i-7">
          <mxGeometry width="30" height="30" as="geometry">
            <mxRectangle width="30" height="30" as="alternateBounds" />
          </mxGeometry>
        </mxCell>
        <mxCell id="d5lCtr-DyPGRIG8KfV5i-9" value="points" style="shape=partialRectangle;connectable=0;fillColor=none;top=0;left=0;bottom=0;right=0;align=left;spacingLeft=6;overflow=hidden;whiteSpace=wrap;html=1;labelBackgroundColor=none;strokeColor=#788AA3;fontColor=#46495D;rounded=1;fontFamily=Georgia;" vertex="1" parent="d5lCtr-DyPGRIG8KfV5i-7">
          <mxGeometry x="30" width="150" height="30" as="geometry">
            <mxRectangle width="150" height="30" as="alternateBounds" />
          </mxGeometry>
        </mxCell>
        <mxCell id="AujnL7_Zl_7fxigJMQ9i-29" style="shape=tableRow;horizontal=0;startSize=0;swimlaneHead=0;swimlaneBody=0;fillColor=none;collapsible=0;dropTarget=0;points=[[0,0.5],[1,0.5]];portConstraint=eastwest;top=0;left=0;right=0;bottom=0;labelBackgroundColor=none;strokeColor=#788AA3;fontColor=#46495D;rounded=1;fontFamily=Georgia;" vertex="1" parent="KckVIJdAY4vBUgBkro1C-15">
          <mxGeometry y="270" width="180" height="30" as="geometry" />
        </mxCell>
        <mxCell id="AujnL7_Zl_7fxigJMQ9i-30" style="shape=partialRectangle;connectable=0;fillColor=none;top=0;left=0;bottom=0;right=0;editable=1;overflow=hidden;whiteSpace=wrap;html=1;labelBackgroundColor=none;strokeColor=#788AA3;fontColor=#46495D;rounded=1;fontFamily=Georgia;" vertex="1" parent="AujnL7_Zl_7fxigJMQ9i-29">
          <mxGeometry width="30" height="30" as="geometry">
            <mxRectangle width="30" height="30" as="alternateBounds" />
          </mxGeometry>
        </mxCell>
        <mxCell id="AujnL7_Zl_7fxigJMQ9i-31" value="editorial_link" style="shape=partialRectangle;connectable=0;fillColor=none;top=0;left=0;bottom=0;right=0;align=left;spacingLeft=6;overflow=hidden;whiteSpace=wrap;html=1;labelBackgroundColor=none;strokeColor=#788AA3;fontColor=#46495D;rounded=1;fontFamily=Georgia;" vertex="1" parent="AujnL7_Zl_7fxigJMQ9i-29">
          <mxGeometry x="30" width="150" height="30" as="geometry">
            <mxRectangle width="150" height="30" as="alternateBounds" />
          </mxGeometry>
        </mxCell>
        <mxCell id="CXDuRIByjEuDGlNMDxh7-262" style="shape=tableRow;horizontal=0;startSize=0;swimlaneHead=0;swimlaneBody=0;fillColor=none;collapsible=0;dropTarget=0;points=[[0,0.5],[1,0.5]];portConstraint=eastwest;top=0;left=0;right=0;bottom=0;labelBackgroundColor=none;strokeColor=#788AA3;fontColor=#46495D;rounded=1;fontFamily=Georgia;" vertex="1" parent="KckVIJdAY4vBUgBkro1C-15">
          <mxGeometry y="300" width="180" height="30" as="geometry" />
        </mxCell>
        <mxCell id="CXDuRIByjEuDGlNMDxh7-263" style="shape=partialRectangle;connectable=0;fillColor=none;top=0;left=0;bottom=0;right=0;editable=1;overflow=hidden;whiteSpace=wrap;html=1;labelBackgroundColor=none;strokeColor=#788AA3;fontColor=#46495D;rounded=1;fontFamily=Georgia;" vertex="1" parent="CXDuRIByjEuDGlNMDxh7-262">
          <mxGeometry width="30" height="30" as="geometry">
            <mxRectangle width="30" height="30" as="alternateBounds" />
          </mxGeometry>
        </mxCell>
        <mxCell id="CXDuRIByjEuDGlNMDxh7-264" value="creation_time" style="shape=partialRectangle;connectable=0;fillColor=none;top=0;left=0;bottom=0;right=0;align=left;spacingLeft=6;overflow=hidden;whiteSpace=wrap;html=1;labelBackgroundColor=none;strokeColor=#788AA3;fontColor=#46495D;rounded=1;fontFamily=Georgia;" vertex="1" parent="CXDuRIByjEuDGlNMDxh7-262">
          <mxGeometry x="30" width="150" height="30" as="geometry">
            <mxRectangle width="150" height="30" as="alternateBounds" />
          </mxGeometry>
        </mxCell>
        <mxCell id="YQxqtUBQv5V27BiSvJei-10" style="shape=tableRow;horizontal=0;startSize=0;swimlaneHead=0;swimlaneBody=0;fillColor=none;collapsible=0;dropTarget=0;points=[[0,0.5],[1,0.5]];portConstraint=eastwest;top=0;left=0;right=0;bottom=0;labelBackgroundColor=none;strokeColor=#788AA3;fontColor=#46495D;rounded=1;fontFamily=Georgia;" vertex="1" parent="KckVIJdAY4vBUgBkro1C-15">
          <mxGeometry y="330" width="180" height="30" as="geometry" />
        </mxCell>
        <mxCell id="YQxqtUBQv5V27BiSvJei-11" style="shape=partialRectangle;connectable=0;fillColor=none;top=0;left=0;bottom=0;right=0;editable=1;overflow=hidden;whiteSpace=wrap;html=1;labelBackgroundColor=none;strokeColor=#788AA3;fontColor=#46495D;rounded=1;fontFamily=Georgia;" vertex="1" parent="YQxqtUBQv5V27BiSvJei-10">
          <mxGeometry width="30" height="30" as="geometry">
            <mxRectangle width="30" height="30" as="alternateBounds" />
          </mxGeometry>
        </mxCell>
        <mxCell id="YQxqtUBQv5V27BiSvJei-12" value="is_live" style="shape=partialRectangle;connectable=0;fillColor=none;top=0;left=0;bottom=0;right=0;align=left;spacingLeft=6;overflow=hidden;whiteSpace=wrap;html=1;labelBackgroundColor=none;strokeColor=#788AA3;fontColor=#46495D;rounded=1;fontFamily=Georgia;" vertex="1" parent="YQxqtUBQv5V27BiSvJei-10">
          <mxGeometry x="30" width="150" height="30" as="geometry">
            <mxRectangle width="150" height="30" as="alternateBounds" />
          </mxGeometry>
        </mxCell>
        <mxCell id="KckVIJdAY4vBUgBkro1C-41" value="Auth" style="shape=table;startSize=30;container=1;collapsible=1;childLayout=tableLayout;fixedRows=1;rowLines=0;fontStyle=1;align=center;resizeLast=1;html=1;labelBackgroundColor=none;fillColor=#FFE6CC;strokeColor=#D79B00;fontColor=#46495D;rounded=1;strokeWidth=2;fontFamily=Georgia;" vertex="1" parent="1">
          <mxGeometry x="460" y="480" width="180" height="150" as="geometry" />
        </mxCell>
        <mxCell id="KckVIJdAY4vBUgBkro1C-42" value="" style="shape=tableRow;horizontal=0;startSize=0;swimlaneHead=0;swimlaneBody=0;fillColor=none;collapsible=0;dropTarget=0;points=[[0,0.5],[1,0.5]];portConstraint=eastwest;top=0;left=0;right=0;bottom=1;labelBackgroundColor=none;strokeColor=#788AA3;fontColor=#46495D;rounded=1;fontFamily=Georgia;" vertex="1" parent="KckVIJdAY4vBUgBkro1C-41">
          <mxGeometry y="30" width="180" height="30" as="geometry" />
        </mxCell>
        <mxCell id="KckVIJdAY4vBUgBkro1C-43" value="PK, FK" style="shape=partialRectangle;connectable=0;fillColor=none;top=0;left=0;bottom=0;right=0;fontStyle=1;overflow=hidden;whiteSpace=wrap;html=1;labelBackgroundColor=none;strokeColor=#788AA3;fontColor=#46495D;rounded=1;fontFamily=Georgia;" vertex="1" parent="KckVIJdAY4vBUgBkro1C-42">
          <mxGeometry width="60" height="30" as="geometry">
            <mxRectangle width="60" height="30" as="alternateBounds" />
          </mxGeometry>
        </mxCell>
        <mxCell id="KckVIJdAY4vBUgBkro1C-44" value="user_id" style="shape=partialRectangle;connectable=0;fillColor=none;top=0;left=0;bottom=0;right=0;align=left;spacingLeft=6;fontStyle=5;overflow=hidden;whiteSpace=wrap;html=1;labelBackgroundColor=none;strokeColor=#457B9D;fontColor=#46495D;rounded=1;strokeWidth=2;fontFamily=Georgia;" vertex="1" parent="KckVIJdAY4vBUgBkro1C-42">
          <mxGeometry x="60" width="120" height="30" as="geometry">
            <mxRectangle width="120" height="30" as="alternateBounds" />
          </mxGeometry>
        </mxCell>
        <mxCell id="KckVIJdAY4vBUgBkro1C-48" value="" style="shape=tableRow;horizontal=0;startSize=0;swimlaneHead=0;swimlaneBody=0;fillColor=none;collapsible=0;dropTarget=0;points=[[0,0.5],[1,0.5]];portConstraint=eastwest;top=0;left=0;right=0;bottom=0;labelBackgroundColor=none;strokeColor=#788AA3;fontColor=#46495D;rounded=1;fontFamily=Georgia;" vertex="1" parent="KckVIJdAY4vBUgBkro1C-41">
          <mxGeometry y="60" width="180" height="30" as="geometry" />
        </mxCell>
        <mxCell id="KckVIJdAY4vBUgBkro1C-49" value="" style="shape=partialRectangle;connectable=0;fillColor=none;top=0;left=0;bottom=0;right=0;editable=1;overflow=hidden;whiteSpace=wrap;html=1;labelBackgroundColor=none;strokeColor=#788AA3;fontColor=#46495D;rounded=1;fontFamily=Georgia;" vertex="1" parent="KckVIJdAY4vBUgBkro1C-48">
          <mxGeometry width="60" height="30" as="geometry">
            <mxRectangle width="60" height="30" as="alternateBounds" />
          </mxGeometry>
        </mxCell>
        <mxCell id="KckVIJdAY4vBUgBkro1C-50" value="email" style="shape=partialRectangle;connectable=0;fillColor=none;top=0;left=0;bottom=0;right=0;align=left;spacingLeft=6;overflow=hidden;whiteSpace=wrap;html=1;labelBackgroundColor=none;strokeColor=#788AA3;fontColor=#46495D;rounded=1;fontFamily=Georgia;" vertex="1" parent="KckVIJdAY4vBUgBkro1C-48">
          <mxGeometry x="60" width="120" height="30" as="geometry">
            <mxRectangle width="120" height="30" as="alternateBounds" />
          </mxGeometry>
        </mxCell>
        <mxCell id="YQxqtUBQv5V27BiSvJei-4" style="shape=tableRow;horizontal=0;startSize=0;swimlaneHead=0;swimlaneBody=0;fillColor=none;collapsible=0;dropTarget=0;points=[[0,0.5],[1,0.5]];portConstraint=eastwest;top=0;left=0;right=0;bottom=0;labelBackgroundColor=none;strokeColor=#788AA3;fontColor=#46495D;rounded=1;fontFamily=Georgia;" vertex="1" parent="KckVIJdAY4vBUgBkro1C-41">
          <mxGeometry y="90" width="180" height="30" as="geometry" />
        </mxCell>
        <mxCell id="YQxqtUBQv5V27BiSvJei-5" style="shape=partialRectangle;connectable=0;fillColor=none;top=0;left=0;bottom=0;right=0;editable=1;overflow=hidden;whiteSpace=wrap;html=1;labelBackgroundColor=none;strokeColor=#788AA3;fontColor=#46495D;rounded=1;fontFamily=Georgia;" vertex="1" parent="YQxqtUBQv5V27BiSvJei-4">
          <mxGeometry width="60" height="30" as="geometry">
            <mxRectangle width="60" height="30" as="alternateBounds" />
          </mxGeometry>
        </mxCell>
        <mxCell id="YQxqtUBQv5V27BiSvJei-6" value="auth_type" style="shape=partialRectangle;connectable=0;fillColor=none;top=0;left=0;bottom=0;right=0;align=left;spacingLeft=6;overflow=hidden;whiteSpace=wrap;html=1;labelBackgroundColor=none;strokeColor=#788AA3;fontColor=#46495D;rounded=1;fontFamily=Georgia;" vertex="1" parent="YQxqtUBQv5V27BiSvJei-4">
          <mxGeometry x="60" width="120" height="30" as="geometry">
            <mxRectangle width="120" height="30" as="alternateBounds" />
          </mxGeometry>
        </mxCell>
        <mxCell id="KckVIJdAY4vBUgBkro1C-51" value="" style="shape=tableRow;horizontal=0;startSize=0;swimlaneHead=0;swimlaneBody=0;fillColor=none;collapsible=0;dropTarget=0;points=[[0,0.5],[1,0.5]];portConstraint=eastwest;top=0;left=0;right=0;bottom=0;labelBackgroundColor=none;strokeColor=#788AA3;fontColor=#46495D;rounded=1;fontFamily=Georgia;" vertex="1" parent="KckVIJdAY4vBUgBkro1C-41">
          <mxGeometry y="120" width="180" height="30" as="geometry" />
        </mxCell>
        <mxCell id="KckVIJdAY4vBUgBkro1C-52" value="" style="shape=partialRectangle;connectable=0;fillColor=none;top=0;left=0;bottom=0;right=0;editable=1;overflow=hidden;whiteSpace=wrap;html=1;labelBackgroundColor=none;strokeColor=#788AA3;fontColor=#46495D;rounded=1;fontFamily=Georgia;" vertex="1" parent="KckVIJdAY4vBUgBkro1C-51">
          <mxGeometry width="60" height="30" as="geometry">
            <mxRectangle width="60" height="30" as="alternateBounds" />
          </mxGeometry>
        </mxCell>
        <mxCell id="KckVIJdAY4vBUgBkro1C-53" value="hashed_pass" style="shape=partialRectangle;connectable=0;fillColor=none;top=0;left=0;bottom=0;right=0;align=left;spacingLeft=6;overflow=hidden;whiteSpace=wrap;html=1;labelBackgroundColor=none;strokeColor=#788AA3;fontColor=#46495D;rounded=1;fontFamily=Georgia;" vertex="1" parent="KckVIJdAY4vBUgBkro1C-51">
          <mxGeometry x="60" width="120" height="30" as="geometry">
            <mxRectangle width="120" height="30" as="alternateBounds" />
          </mxGeometry>
        </mxCell>
        <mxCell id="CXDuRIByjEuDGlNMDxh7-27" value="Topic" style="shape=table;startSize=30;container=1;collapsible=1;childLayout=tableLayout;fixedRows=1;rowLines=0;fontStyle=1;align=center;resizeLast=1;html=1;labelBackgroundColor=none;fillColor=#fff2cc;strokeColor=#d6b656;rounded=1;strokeWidth=2;fontFamily=Georgia;" vertex="1" parent="1">
          <mxGeometry x="1752" y="860" width="180" height="150" as="geometry" />
        </mxCell>
        <mxCell id="CXDuRIByjEuDGlNMDxh7-28" value="" style="shape=tableRow;horizontal=0;startSize=0;swimlaneHead=0;swimlaneBody=0;fillColor=none;collapsible=0;dropTarget=0;points=[[0,0.5],[1,0.5]];portConstraint=eastwest;top=0;left=0;right=0;bottom=1;labelBackgroundColor=none;strokeColor=#788AA3;fontColor=#46495D;rounded=1;fontFamily=Georgia;" vertex="1" parent="CXDuRIByjEuDGlNMDxh7-27">
          <mxGeometry y="30" width="180" height="30" as="geometry" />
        </mxCell>
        <mxCell id="CXDuRIByjEuDGlNMDxh7-29" value="PK" style="shape=partialRectangle;connectable=0;fillColor=none;top=0;left=0;bottom=0;right=0;fontStyle=1;overflow=hidden;whiteSpace=wrap;html=1;labelBackgroundColor=none;strokeColor=#788AA3;fontColor=#46495D;rounded=1;fontFamily=Georgia;" vertex="1" parent="CXDuRIByjEuDGlNMDxh7-28">
          <mxGeometry width="30" height="30" as="geometry">
            <mxRectangle width="30" height="30" as="alternateBounds" />
          </mxGeometry>
        </mxCell>
        <mxCell id="CXDuRIByjEuDGlNMDxh7-30" value="topic_id" style="shape=partialRectangle;connectable=0;fillColor=none;top=0;left=0;bottom=0;right=0;align=left;spacingLeft=6;fontStyle=5;overflow=hidden;whiteSpace=wrap;html=1;labelBackgroundColor=none;strokeColor=#457B9D;fontColor=#46495D;rounded=1;strokeWidth=2;fontFamily=Georgia;" vertex="1" parent="CXDuRIByjEuDGlNMDxh7-28">
          <mxGeometry x="30" width="150" height="30" as="geometry">
            <mxRectangle width="150" height="30" as="alternateBounds" />
          </mxGeometry>
        </mxCell>
        <mxCell id="CXDuRIByjEuDGlNMDxh7-31" value="" style="shape=tableRow;horizontal=0;startSize=0;swimlaneHead=0;swimlaneBody=0;fillColor=none;collapsible=0;dropTarget=0;points=[[0,0.5],[1,0.5]];portConstraint=eastwest;top=0;left=0;right=0;bottom=0;labelBackgroundColor=none;strokeColor=#788AA3;fontColor=#46495D;rounded=1;fontFamily=Georgia;" vertex="1" parent="CXDuRIByjEuDGlNMDxh7-27">
          <mxGeometry y="60" width="180" height="30" as="geometry" />
        </mxCell>
        <mxCell id="CXDuRIByjEuDGlNMDxh7-32" value="" style="shape=partialRectangle;connectable=0;fillColor=none;top=0;left=0;bottom=0;right=0;editable=1;overflow=hidden;whiteSpace=wrap;html=1;labelBackgroundColor=none;strokeColor=#788AA3;fontColor=#46495D;rounded=1;fontFamily=Georgia;" vertex="1" parent="CXDuRIByjEuDGlNMDxh7-31">
          <mxGeometry width="30" height="30" as="geometry">
            <mxRectangle width="30" height="30" as="alternateBounds" />
          </mxGeometry>
        </mxCell>
        <mxCell id="CXDuRIByjEuDGlNMDxh7-33" value="name" style="shape=partialRectangle;connectable=0;fillColor=none;top=0;left=0;bottom=0;right=0;align=left;spacingLeft=6;overflow=hidden;whiteSpace=wrap;html=1;labelBackgroundColor=none;strokeColor=#788AA3;fontColor=#46495D;rounded=1;strokeWidth=1;fontFamily=Georgia;" vertex="1" parent="CXDuRIByjEuDGlNMDxh7-31">
          <mxGeometry x="30" width="150" height="30" as="geometry">
            <mxRectangle width="150" height="30" as="alternateBounds" />
          </mxGeometry>
        </mxCell>
        <mxCell id="CXDuRIByjEuDGlNMDxh7-34" value="" style="shape=tableRow;horizontal=0;startSize=0;swimlaneHead=0;swimlaneBody=0;fillColor=none;collapsible=0;dropTarget=0;points=[[0,0.5],[1,0.5]];portConstraint=eastwest;top=0;left=0;right=0;bottom=0;labelBackgroundColor=none;strokeColor=#788AA3;fontColor=#46495D;rounded=1;fontFamily=Georgia;" vertex="1" parent="CXDuRIByjEuDGlNMDxh7-27">
          <mxGeometry y="90" width="180" height="30" as="geometry" />
        </mxCell>
        <mxCell id="CXDuRIByjEuDGlNMDxh7-35" value="" style="shape=partialRectangle;connectable=0;fillColor=none;top=0;left=0;bottom=0;right=0;editable=1;overflow=hidden;whiteSpace=wrap;html=1;labelBackgroundColor=none;strokeColor=#788AA3;fontColor=#46495D;rounded=1;fontFamily=Georgia;" vertex="1" parent="CXDuRIByjEuDGlNMDxh7-34">
          <mxGeometry width="30" height="30" as="geometry">
            <mxRectangle width="30" height="30" as="alternateBounds" />
          </mxGeometry>
        </mxCell>
        <mxCell id="CXDuRIByjEuDGlNMDxh7-36" value="description" style="shape=partialRectangle;connectable=0;fillColor=none;top=0;left=0;bottom=0;right=0;align=left;spacingLeft=6;overflow=hidden;whiteSpace=wrap;html=1;labelBackgroundColor=none;strokeColor=#788AA3;fontColor=#46495D;rounded=1;fontFamily=Georgia;" vertex="1" parent="CXDuRIByjEuDGlNMDxh7-34">
          <mxGeometry x="30" width="150" height="30" as="geometry">
            <mxRectangle width="150" height="30" as="alternateBounds" />
          </mxGeometry>
        </mxCell>
        <mxCell id="CXDuRIByjEuDGlNMDxh7-37" value="" style="shape=tableRow;horizontal=0;startSize=0;swimlaneHead=0;swimlaneBody=0;fillColor=none;collapsible=0;dropTarget=0;points=[[0,0.5],[1,0.5]];portConstraint=eastwest;top=0;left=0;right=0;bottom=0;labelBackgroundColor=none;strokeColor=#788AA3;fontColor=#46495D;rounded=1;fontFamily=Georgia;" vertex="1" parent="CXDuRIByjEuDGlNMDxh7-27">
          <mxGeometry y="120" width="180" height="30" as="geometry" />
        </mxCell>
        <mxCell id="CXDuRIByjEuDGlNMDxh7-38" value="" style="shape=partialRectangle;connectable=0;fillColor=none;top=0;left=0;bottom=0;right=0;editable=1;overflow=hidden;whiteSpace=wrap;html=1;labelBackgroundColor=none;strokeColor=#788AA3;fontColor=#46495D;rounded=1;fontFamily=Georgia;" vertex="1" parent="CXDuRIByjEuDGlNMDxh7-37">
          <mxGeometry width="30" height="30" as="geometry">
            <mxRectangle width="30" height="30" as="alternateBounds" />
          </mxGeometry>
        </mxCell>
        <mxCell id="CXDuRIByjEuDGlNMDxh7-39" value="logo" style="shape=partialRectangle;connectable=0;fillColor=none;top=0;left=0;bottom=0;right=0;align=left;spacingLeft=6;overflow=hidden;whiteSpace=wrap;html=1;labelBackgroundColor=none;strokeColor=#788AA3;fontColor=#46495D;rounded=1;fontFamily=Georgia;" vertex="1" parent="CXDuRIByjEuDGlNMDxh7-37">
          <mxGeometry x="30" width="150" height="30" as="geometry">
            <mxRectangle width="150" height="30" as="alternateBounds" />
          </mxGeometry>
        </mxCell>
        <mxCell id="CXDuRIByjEuDGlNMDxh7-40" value="Algorithm" style="shape=table;startSize=30;container=1;collapsible=1;childLayout=tableLayout;fixedRows=1;rowLines=0;fontStyle=1;align=center;resizeLast=1;html=1;labelBackgroundColor=none;fillColor=#fff2cc;strokeColor=#d6b656;rounded=1;strokeWidth=2;fontFamily=Georgia;" vertex="1" parent="1">
          <mxGeometry x="1500" y="480" width="180" height="270" as="geometry" />
        </mxCell>
        <mxCell id="CXDuRIByjEuDGlNMDxh7-41" value="" style="shape=tableRow;horizontal=0;startSize=0;swimlaneHead=0;swimlaneBody=0;fillColor=none;collapsible=0;dropTarget=0;points=[[0,0.5],[1,0.5]];portConstraint=eastwest;top=0;left=0;right=0;bottom=1;labelBackgroundColor=none;strokeColor=#788AA3;fontColor=#46495D;rounded=1;fontFamily=Georgia;" vertex="1" parent="CXDuRIByjEuDGlNMDxh7-40">
          <mxGeometry y="30" width="180" height="30" as="geometry" />
        </mxCell>
        <mxCell id="CXDuRIByjEuDGlNMDxh7-42" value="PK" style="shape=partialRectangle;connectable=0;fillColor=none;top=0;left=0;bottom=0;right=0;fontStyle=1;overflow=hidden;whiteSpace=wrap;html=1;labelBackgroundColor=none;strokeColor=#788AA3;fontColor=#46495D;rounded=1;fontFamily=Georgia;" vertex="1" parent="CXDuRIByjEuDGlNMDxh7-41">
          <mxGeometry width="30" height="30" as="geometry">
            <mxRectangle width="30" height="30" as="alternateBounds" />
          </mxGeometry>
        </mxCell>
        <mxCell id="CXDuRIByjEuDGlNMDxh7-43" value="algorithm_id" style="shape=partialRectangle;connectable=0;fillColor=none;top=0;left=0;bottom=0;right=0;align=left;spacingLeft=6;fontStyle=5;overflow=hidden;whiteSpace=wrap;html=1;labelBackgroundColor=none;strokeColor=#457B9D;fontColor=#46495D;rounded=1;strokeWidth=2;fontFamily=Georgia;" vertex="1" parent="CXDuRIByjEuDGlNMDxh7-41">
          <mxGeometry x="30" width="150" height="30" as="geometry">
            <mxRectangle width="150" height="30" as="alternateBounds" />
          </mxGeometry>
        </mxCell>
        <mxCell id="CXDuRIByjEuDGlNMDxh7-339" style="shape=tableRow;horizontal=0;startSize=0;swimlaneHead=0;swimlaneBody=0;fillColor=none;collapsible=0;dropTarget=0;points=[[0,0.5],[1,0.5]];portConstraint=eastwest;top=0;left=0;right=0;bottom=0;labelBackgroundColor=none;strokeColor=#788AA3;fontColor=#46495D;rounded=1;fontFamily=Georgia;" vertex="1" parent="CXDuRIByjEuDGlNMDxh7-40">
          <mxGeometry y="60" width="180" height="30" as="geometry" />
        </mxCell>
        <mxCell id="CXDuRIByjEuDGlNMDxh7-340" value="&lt;b&gt;FK&lt;/b&gt;" style="shape=partialRectangle;connectable=0;fillColor=none;top=0;left=0;bottom=0;right=0;editable=1;overflow=hidden;whiteSpace=wrap;html=1;labelBackgroundColor=none;strokeColor=#788AA3;fontColor=#46495D;rounded=1;fontFamily=Georgia;" vertex="1" parent="CXDuRIByjEuDGlNMDxh7-339">
          <mxGeometry width="30" height="30" as="geometry">
            <mxRectangle width="30" height="30" as="alternateBounds" />
          </mxGeometry>
        </mxCell>
        <mxCell id="CXDuRIByjEuDGlNMDxh7-341" value="&lt;b&gt;topic_id&lt;/b&gt;" style="shape=partialRectangle;connectable=0;fillColor=none;top=0;left=0;bottom=0;right=0;align=left;spacingLeft=6;overflow=hidden;whiteSpace=wrap;html=1;labelBackgroundColor=none;strokeColor=#788AA3;fontColor=#46495D;rounded=1;strokeWidth=1;fontFamily=Georgia;" vertex="1" parent="CXDuRIByjEuDGlNMDxh7-339">
          <mxGeometry x="30" width="150" height="30" as="geometry">
            <mxRectangle width="150" height="30" as="alternateBounds" />
          </mxGeometry>
        </mxCell>
        <mxCell id="d5lCtr-DyPGRIG8KfV5i-1" style="shape=tableRow;horizontal=0;startSize=0;swimlaneHead=0;swimlaneBody=0;fillColor=none;collapsible=0;dropTarget=0;points=[[0,0.5],[1,0.5]];portConstraint=eastwest;top=0;left=0;right=0;bottom=0;labelBackgroundColor=none;strokeColor=#788AA3;fontColor=#46495D;rounded=1;fontFamily=Georgia;" vertex="1" parent="CXDuRIByjEuDGlNMDxh7-40">
          <mxGeometry y="90" width="180" height="30" as="geometry" />
        </mxCell>
        <mxCell id="d5lCtr-DyPGRIG8KfV5i-2" value="&lt;b&gt;FK&lt;/b&gt;" style="shape=partialRectangle;connectable=0;fillColor=none;top=0;left=0;bottom=0;right=0;editable=1;overflow=hidden;whiteSpace=wrap;html=1;labelBackgroundColor=none;strokeColor=#788AA3;fontColor=#46495D;rounded=1;fontFamily=Georgia;" vertex="1" parent="d5lCtr-DyPGRIG8KfV5i-1">
          <mxGeometry width="30" height="30" as="geometry">
            <mxRectangle width="30" height="30" as="alternateBounds" />
          </mxGeometry>
        </mxCell>
        <mxCell id="d5lCtr-DyPGRIG8KfV5i-3" value="&lt;b&gt;canvas_id&lt;/b&gt;" style="shape=partialRectangle;connectable=0;fillColor=none;top=0;left=0;bottom=0;right=0;align=left;spacingLeft=6;overflow=hidden;whiteSpace=wrap;html=1;labelBackgroundColor=none;strokeColor=#788AA3;fontColor=#46495D;rounded=1;strokeWidth=1;fontFamily=Georgia;" vertex="1" parent="d5lCtr-DyPGRIG8KfV5i-1">
          <mxGeometry x="30" width="150" height="30" as="geometry">
            <mxRectangle width="150" height="30" as="alternateBounds" />
          </mxGeometry>
        </mxCell>
        <mxCell id="CXDuRIByjEuDGlNMDxh7-44" value="" style="shape=tableRow;horizontal=0;startSize=0;swimlaneHead=0;swimlaneBody=0;fillColor=none;collapsible=0;dropTarget=0;points=[[0,0.5],[1,0.5]];portConstraint=eastwest;top=0;left=0;right=0;bottom=0;labelBackgroundColor=none;strokeColor=#788AA3;fontColor=#46495D;rounded=1;fontFamily=Georgia;" vertex="1" parent="CXDuRIByjEuDGlNMDxh7-40">
          <mxGeometry y="120" width="180" height="30" as="geometry" />
        </mxCell>
        <mxCell id="CXDuRIByjEuDGlNMDxh7-45" value="" style="shape=partialRectangle;connectable=0;fillColor=none;top=0;left=0;bottom=0;right=0;editable=1;overflow=hidden;whiteSpace=wrap;html=1;labelBackgroundColor=none;strokeColor=#788AA3;fontColor=#46495D;rounded=1;fontFamily=Georgia;" vertex="1" parent="CXDuRIByjEuDGlNMDxh7-44">
          <mxGeometry width="30" height="30" as="geometry">
            <mxRectangle width="30" height="30" as="alternateBounds" />
          </mxGeometry>
        </mxCell>
        <mxCell id="CXDuRIByjEuDGlNMDxh7-46" value="name" style="shape=partialRectangle;connectable=0;fillColor=none;top=0;left=0;bottom=0;right=0;align=left;spacingLeft=6;overflow=hidden;whiteSpace=wrap;html=1;labelBackgroundColor=none;strokeColor=#788AA3;fontColor=#46495D;rounded=1;strokeWidth=1;fontFamily=Georgia;" vertex="1" parent="CXDuRIByjEuDGlNMDxh7-44">
          <mxGeometry x="30" width="150" height="30" as="geometry">
            <mxRectangle width="150" height="30" as="alternateBounds" />
          </mxGeometry>
        </mxCell>
        <mxCell id="CXDuRIByjEuDGlNMDxh7-47" value="" style="shape=tableRow;horizontal=0;startSize=0;swimlaneHead=0;swimlaneBody=0;fillColor=none;collapsible=0;dropTarget=0;points=[[0,0.5],[1,0.5]];portConstraint=eastwest;top=0;left=0;right=0;bottom=0;labelBackgroundColor=none;strokeColor=#788AA3;fontColor=#46495D;rounded=1;fontFamily=Georgia;" vertex="1" parent="CXDuRIByjEuDGlNMDxh7-40">
          <mxGeometry y="150" width="180" height="30" as="geometry" />
        </mxCell>
        <mxCell id="CXDuRIByjEuDGlNMDxh7-48" value="" style="shape=partialRectangle;connectable=0;fillColor=none;top=0;left=0;bottom=0;right=0;editable=1;overflow=hidden;whiteSpace=wrap;html=1;labelBackgroundColor=none;strokeColor=#788AA3;fontColor=#46495D;rounded=1;fontFamily=Georgia;" vertex="1" parent="CXDuRIByjEuDGlNMDxh7-47">
          <mxGeometry width="30" height="30" as="geometry">
            <mxRectangle width="30" height="30" as="alternateBounds" />
          </mxGeometry>
        </mxCell>
        <mxCell id="CXDuRIByjEuDGlNMDxh7-49" value="logo" style="shape=partialRectangle;connectable=0;fillColor=none;top=0;left=0;bottom=0;right=0;align=left;spacingLeft=6;overflow=hidden;whiteSpace=wrap;html=1;labelBackgroundColor=none;strokeColor=#788AA3;fontColor=#46495D;rounded=1;fontFamily=Georgia;" vertex="1" parent="CXDuRIByjEuDGlNMDxh7-47">
          <mxGeometry x="30" width="150" height="30" as="geometry">
            <mxRectangle width="150" height="30" as="alternateBounds" />
          </mxGeometry>
        </mxCell>
        <mxCell id="CXDuRIByjEuDGlNMDxh7-50" value="" style="shape=tableRow;horizontal=0;startSize=0;swimlaneHead=0;swimlaneBody=0;fillColor=none;collapsible=0;dropTarget=0;points=[[0,0.5],[1,0.5]];portConstraint=eastwest;top=0;left=0;right=0;bottom=0;labelBackgroundColor=none;strokeColor=#788AA3;fontColor=#46495D;rounded=1;fontFamily=Georgia;" vertex="1" parent="CXDuRIByjEuDGlNMDxh7-40">
          <mxGeometry y="180" width="180" height="30" as="geometry" />
        </mxCell>
        <mxCell id="CXDuRIByjEuDGlNMDxh7-51" value="" style="shape=partialRectangle;connectable=0;fillColor=none;top=0;left=0;bottom=0;right=0;editable=1;overflow=hidden;whiteSpace=wrap;html=1;labelBackgroundColor=none;strokeColor=#788AA3;fontColor=#46495D;rounded=1;fontFamily=Georgia;" vertex="1" parent="CXDuRIByjEuDGlNMDxh7-50">
          <mxGeometry width="30" height="30" as="geometry">
            <mxRectangle width="30" height="30" as="alternateBounds" />
          </mxGeometry>
        </mxCell>
        <mxCell id="CXDuRIByjEuDGlNMDxh7-52" value="tutorial_link " style="shape=partialRectangle;connectable=0;fillColor=none;top=0;left=0;bottom=0;right=0;align=left;spacingLeft=6;overflow=hidden;whiteSpace=wrap;html=1;labelBackgroundColor=none;strokeColor=#788AA3;fontColor=#46495D;rounded=1;fontFamily=Georgia;" vertex="1" parent="CXDuRIByjEuDGlNMDxh7-50">
          <mxGeometry x="30" width="150" height="30" as="geometry">
            <mxRectangle width="150" height="30" as="alternateBounds" />
          </mxGeometry>
        </mxCell>
        <mxCell id="lQcV0rLCLob2I8ij3lz1-28" style="shape=tableRow;horizontal=0;startSize=0;swimlaneHead=0;swimlaneBody=0;fillColor=none;collapsible=0;dropTarget=0;points=[[0,0.5],[1,0.5]];portConstraint=eastwest;top=0;left=0;right=0;bottom=0;labelBackgroundColor=none;strokeColor=#788AA3;fontColor=#46495D;rounded=1;fontFamily=Georgia;" vertex="1" parent="CXDuRIByjEuDGlNMDxh7-40">
          <mxGeometry y="210" width="180" height="30" as="geometry" />
        </mxCell>
        <mxCell id="lQcV0rLCLob2I8ij3lz1-29" style="shape=partialRectangle;connectable=0;fillColor=none;top=0;left=0;bottom=0;right=0;editable=1;overflow=hidden;whiteSpace=wrap;html=1;labelBackgroundColor=none;strokeColor=#788AA3;fontColor=#46495D;rounded=1;fontFamily=Georgia;" vertex="1" parent="lQcV0rLCLob2I8ij3lz1-28">
          <mxGeometry width="30" height="30" as="geometry">
            <mxRectangle width="30" height="30" as="alternateBounds" />
          </mxGeometry>
        </mxCell>
        <mxCell id="lQcV0rLCLob2I8ij3lz1-30" value="solution_generator" style="shape=partialRectangle;connectable=0;fillColor=none;top=0;left=0;bottom=0;right=0;align=left;spacingLeft=6;overflow=hidden;whiteSpace=wrap;html=1;labelBackgroundColor=none;strokeColor=#788AA3;fontColor=#46495D;rounded=1;fontFamily=Georgia;" vertex="1" parent="lQcV0rLCLob2I8ij3lz1-28">
          <mxGeometry x="30" width="150" height="30" as="geometry">
            <mxRectangle width="150" height="30" as="alternateBounds" />
          </mxGeometry>
        </mxCell>
        <mxCell id="NIYNsH0pSSQVCrMqCMiQ-4" style="shape=tableRow;horizontal=0;startSize=0;swimlaneHead=0;swimlaneBody=0;fillColor=none;collapsible=0;dropTarget=0;points=[[0,0.5],[1,0.5]];portConstraint=eastwest;top=0;left=0;right=0;bottom=0;labelBackgroundColor=none;strokeColor=#788AA3;fontColor=#46495D;rounded=1;fontFamily=Georgia;" vertex="1" parent="CXDuRIByjEuDGlNMDxh7-40">
          <mxGeometry y="240" width="180" height="30" as="geometry" />
        </mxCell>
        <mxCell id="NIYNsH0pSSQVCrMqCMiQ-5" style="shape=partialRectangle;connectable=0;fillColor=none;top=0;left=0;bottom=0;right=0;editable=1;overflow=hidden;whiteSpace=wrap;html=1;labelBackgroundColor=none;strokeColor=#788AA3;fontColor=#46495D;rounded=1;fontFamily=Georgia;" vertex="1" parent="NIYNsH0pSSQVCrMqCMiQ-4">
          <mxGeometry width="30" height="30" as="geometry">
            <mxRectangle width="30" height="30" as="alternateBounds" />
          </mxGeometry>
        </mxCell>
        <mxCell id="NIYNsH0pSSQVCrMqCMiQ-6" value="template" style="shape=partialRectangle;connectable=0;fillColor=none;top=0;left=0;bottom=0;right=0;align=left;spacingLeft=6;overflow=hidden;whiteSpace=wrap;html=1;labelBackgroundColor=none;strokeColor=#788AA3;fontColor=#46495D;rounded=1;fontFamily=Georgia;" vertex="1" parent="NIYNsH0pSSQVCrMqCMiQ-4">
          <mxGeometry x="30" width="150" height="30" as="geometry">
            <mxRectangle width="150" height="30" as="alternateBounds" />
          </mxGeometry>
        </mxCell>
        <mxCell id="CXDuRIByjEuDGlNMDxh7-80" value="Chat" style="shape=table;startSize=30;container=1;collapsible=1;childLayout=tableLayout;fixedRows=1;rowLines=0;fontStyle=1;align=center;resizeLast=1;html=1;labelBackgroundColor=none;fillColor=#D5E8D4;strokeColor=#82B366;fontColor=#46495D;rounded=1;strokeWidth=2;fontFamily=Georgia;" vertex="1" parent="1">
          <mxGeometry x="720" y="860" width="180" height="150" as="geometry" />
        </mxCell>
        <mxCell id="CXDuRIByjEuDGlNMDxh7-81" value="" style="shape=tableRow;horizontal=0;startSize=0;swimlaneHead=0;swimlaneBody=0;fillColor=none;collapsible=0;dropTarget=0;points=[[0,0.5],[1,0.5]];portConstraint=eastwest;top=0;left=0;right=0;bottom=1;labelBackgroundColor=none;strokeColor=#788AA3;fontColor=#46495D;rounded=1;fontFamily=Georgia;" vertex="1" parent="CXDuRIByjEuDGlNMDxh7-80">
          <mxGeometry y="30" width="180" height="30" as="geometry" />
        </mxCell>
        <mxCell id="CXDuRIByjEuDGlNMDxh7-82" value="PK" style="shape=partialRectangle;connectable=0;fillColor=none;top=0;left=0;bottom=0;right=0;fontStyle=1;overflow=hidden;whiteSpace=wrap;html=1;labelBackgroundColor=none;strokeColor=#788AA3;fontColor=#46495D;rounded=1;fontFamily=Georgia;" vertex="1" parent="CXDuRIByjEuDGlNMDxh7-81">
          <mxGeometry width="30" height="30" as="geometry">
            <mxRectangle width="30" height="30" as="alternateBounds" />
          </mxGeometry>
        </mxCell>
        <mxCell id="CXDuRIByjEuDGlNMDxh7-83" value="chat_id" style="shape=partialRectangle;connectable=0;fillColor=none;top=0;left=0;bottom=0;right=0;align=left;spacingLeft=6;fontStyle=5;overflow=hidden;whiteSpace=wrap;html=1;labelBackgroundColor=none;strokeColor=#457B9D;fontColor=#46495D;rounded=1;strokeWidth=2;fontFamily=Georgia;" vertex="1" parent="CXDuRIByjEuDGlNMDxh7-81">
          <mxGeometry x="30" width="150" height="30" as="geometry">
            <mxRectangle width="150" height="30" as="alternateBounds" />
          </mxGeometry>
        </mxCell>
        <mxCell id="CXDuRIByjEuDGlNMDxh7-84" value="" style="shape=tableRow;horizontal=0;startSize=0;swimlaneHead=0;swimlaneBody=0;fillColor=none;collapsible=0;dropTarget=0;points=[[0,0.5],[1,0.5]];portConstraint=eastwest;top=0;left=0;right=0;bottom=0;labelBackgroundColor=none;strokeColor=#788AA3;fontColor=#46495D;rounded=1;fontFamily=Georgia;" vertex="1" parent="CXDuRIByjEuDGlNMDxh7-80">
          <mxGeometry y="60" width="180" height="30" as="geometry" />
        </mxCell>
        <mxCell id="CXDuRIByjEuDGlNMDxh7-85" value="&lt;b&gt;FK&lt;/b&gt;" style="shape=partialRectangle;connectable=0;fillColor=none;top=0;left=0;bottom=0;right=0;editable=1;overflow=hidden;whiteSpace=wrap;html=1;labelBackgroundColor=none;strokeColor=#788AA3;fontColor=#46495D;rounded=1;fontFamily=Georgia;" vertex="1" parent="CXDuRIByjEuDGlNMDxh7-84">
          <mxGeometry width="30" height="30" as="geometry">
            <mxRectangle width="30" height="30" as="alternateBounds" />
          </mxGeometry>
        </mxCell>
        <mxCell id="CXDuRIByjEuDGlNMDxh7-86" value="&lt;b&gt;user_id&lt;/b&gt;" style="shape=partialRectangle;connectable=0;fillColor=none;top=0;left=0;bottom=0;right=0;align=left;spacingLeft=6;overflow=hidden;whiteSpace=wrap;html=1;labelBackgroundColor=none;strokeColor=#788AA3;fontColor=#46495D;rounded=1;strokeWidth=1;fontFamily=Georgia;" vertex="1" parent="CXDuRIByjEuDGlNMDxh7-84">
          <mxGeometry x="30" width="150" height="30" as="geometry">
            <mxRectangle width="150" height="30" as="alternateBounds" />
          </mxGeometry>
        </mxCell>
        <mxCell id="CXDuRIByjEuDGlNMDxh7-87" value="" style="shape=tableRow;horizontal=0;startSize=0;swimlaneHead=0;swimlaneBody=0;fillColor=none;collapsible=0;dropTarget=0;points=[[0,0.5],[1,0.5]];portConstraint=eastwest;top=0;left=0;right=0;bottom=0;labelBackgroundColor=none;strokeColor=#788AA3;fontColor=#46495D;rounded=1;fontFamily=Georgia;" vertex="1" parent="CXDuRIByjEuDGlNMDxh7-80">
          <mxGeometry y="90" width="180" height="30" as="geometry" />
        </mxCell>
        <mxCell id="CXDuRIByjEuDGlNMDxh7-88" value="" style="shape=partialRectangle;connectable=0;fillColor=none;top=0;left=0;bottom=0;right=0;editable=1;overflow=hidden;whiteSpace=wrap;html=1;labelBackgroundColor=none;strokeColor=#788AA3;fontColor=#46495D;rounded=1;fontFamily=Georgia;" vertex="1" parent="CXDuRIByjEuDGlNMDxh7-87">
          <mxGeometry width="30" height="30" as="geometry">
            <mxRectangle width="30" height="30" as="alternateBounds" />
          </mxGeometry>
        </mxCell>
        <mxCell id="CXDuRIByjEuDGlNMDxh7-89" value="timestmp" style="shape=partialRectangle;connectable=0;fillColor=none;top=0;left=0;bottom=0;right=0;align=left;spacingLeft=6;overflow=hidden;whiteSpace=wrap;html=1;labelBackgroundColor=none;strokeColor=#788AA3;fontColor=#46495D;rounded=1;fontFamily=Georgia;" vertex="1" parent="CXDuRIByjEuDGlNMDxh7-87">
          <mxGeometry x="30" width="150" height="30" as="geometry">
            <mxRectangle width="150" height="30" as="alternateBounds" />
          </mxGeometry>
        </mxCell>
        <mxCell id="CXDuRIByjEuDGlNMDxh7-90" value="" style="shape=tableRow;horizontal=0;startSize=0;swimlaneHead=0;swimlaneBody=0;fillColor=none;collapsible=0;dropTarget=0;points=[[0,0.5],[1,0.5]];portConstraint=eastwest;top=0;left=0;right=0;bottom=0;labelBackgroundColor=none;strokeColor=#788AA3;fontColor=#46495D;rounded=1;fontFamily=Georgia;" vertex="1" parent="CXDuRIByjEuDGlNMDxh7-80">
          <mxGeometry y="120" width="180" height="30" as="geometry" />
        </mxCell>
        <mxCell id="CXDuRIByjEuDGlNMDxh7-91" value="" style="shape=partialRectangle;connectable=0;fillColor=none;top=0;left=0;bottom=0;right=0;editable=1;overflow=hidden;whiteSpace=wrap;html=1;labelBackgroundColor=none;strokeColor=#788AA3;fontColor=#46495D;rounded=1;fontFamily=Georgia;" vertex="1" parent="CXDuRIByjEuDGlNMDxh7-90">
          <mxGeometry width="30" height="30" as="geometry">
            <mxRectangle width="30" height="30" as="alternateBounds" />
          </mxGeometry>
        </mxCell>
        <mxCell id="CXDuRIByjEuDGlNMDxh7-92" value="title" style="shape=partialRectangle;connectable=0;fillColor=none;top=0;left=0;bottom=0;right=0;align=left;spacingLeft=6;overflow=hidden;whiteSpace=wrap;html=1;labelBackgroundColor=none;strokeColor=#788AA3;fontColor=#46495D;rounded=1;fontFamily=Georgia;" vertex="1" parent="CXDuRIByjEuDGlNMDxh7-90">
          <mxGeometry x="30" width="150" height="30" as="geometry">
            <mxRectangle width="150" height="30" as="alternateBounds" />
          </mxGeometry>
        </mxCell>
        <mxCell id="CXDuRIByjEuDGlNMDxh7-94" value="Hint" style="shape=table;startSize=30;container=1;collapsible=1;childLayout=tableLayout;fixedRows=1;rowLines=0;fontStyle=1;align=center;resizeLast=1;html=1;labelBackgroundColor=none;fillColor=#dae8fc;strokeColor=#6c8ebf;rounded=1;strokeWidth=2;fontFamily=Georgia;" vertex="1" parent="1">
          <mxGeometry x="1245" y="860" width="180" height="150" as="geometry" />
        </mxCell>
        <mxCell id="CXDuRIByjEuDGlNMDxh7-95" value="" style="shape=tableRow;horizontal=0;startSize=0;swimlaneHead=0;swimlaneBody=0;fillColor=none;collapsible=0;dropTarget=0;points=[[0,0.5],[1,0.5]];portConstraint=eastwest;top=0;left=0;right=0;bottom=1;labelBackgroundColor=none;strokeColor=#788AA3;fontColor=#46495D;rounded=1;fontFamily=Georgia;" vertex="1" parent="CXDuRIByjEuDGlNMDxh7-94">
          <mxGeometry y="30" width="180" height="30" as="geometry" />
        </mxCell>
        <mxCell id="CXDuRIByjEuDGlNMDxh7-96" value="PK" style="shape=partialRectangle;connectable=0;fillColor=none;top=0;left=0;bottom=0;right=0;fontStyle=1;overflow=hidden;whiteSpace=wrap;html=1;labelBackgroundColor=none;strokeColor=#788AA3;fontColor=#46495D;rounded=1;fontFamily=Georgia;" vertex="1" parent="CXDuRIByjEuDGlNMDxh7-95">
          <mxGeometry width="34.99999999999977" height="30" as="geometry">
            <mxRectangle width="34.99999999999977" height="30" as="alternateBounds" />
          </mxGeometry>
        </mxCell>
        <mxCell id="CXDuRIByjEuDGlNMDxh7-97" value="hint_id" style="shape=partialRectangle;connectable=0;fillColor=none;top=0;left=0;bottom=0;right=0;align=left;spacingLeft=6;fontStyle=5;overflow=hidden;whiteSpace=wrap;html=1;labelBackgroundColor=none;strokeColor=#788AA3;fontColor=#46495D;rounded=1;fontFamily=Georgia;" vertex="1" parent="CXDuRIByjEuDGlNMDxh7-95">
          <mxGeometry x="34.99999999999977" width="145.00000000000023" height="30" as="geometry">
            <mxRectangle width="145.00000000000023" height="30" as="alternateBounds" />
          </mxGeometry>
        </mxCell>
        <mxCell id="d5lCtr-DyPGRIG8KfV5i-16" style="shape=tableRow;horizontal=0;startSize=0;swimlaneHead=0;swimlaneBody=0;fillColor=none;collapsible=0;dropTarget=0;points=[[0,0.5],[1,0.5]];portConstraint=eastwest;top=0;left=0;right=0;bottom=0;labelBackgroundColor=none;strokeColor=#788AA3;fontColor=#46495D;rounded=1;fontFamily=Georgia;" vertex="1" parent="CXDuRIByjEuDGlNMDxh7-94">
          <mxGeometry y="60" width="180" height="30" as="geometry" />
        </mxCell>
        <mxCell id="d5lCtr-DyPGRIG8KfV5i-17" value="&lt;b&gt;FK&lt;/b&gt;" style="shape=partialRectangle;connectable=0;fillColor=none;top=0;left=0;bottom=0;right=0;editable=1;overflow=hidden;whiteSpace=wrap;html=1;labelBackgroundColor=none;strokeColor=#788AA3;fontColor=#46495D;rounded=1;fontFamily=Georgia;" vertex="1" parent="d5lCtr-DyPGRIG8KfV5i-16">
          <mxGeometry width="34.99999999999977" height="30" as="geometry">
            <mxRectangle width="34.99999999999977" height="30" as="alternateBounds" />
          </mxGeometry>
        </mxCell>
        <mxCell id="d5lCtr-DyPGRIG8KfV5i-18" value="&lt;b&gt;problem_id&lt;/b&gt;" style="shape=partialRectangle;connectable=0;fillColor=none;top=0;left=0;bottom=0;right=0;align=left;spacingLeft=6;overflow=hidden;whiteSpace=wrap;html=1;labelBackgroundColor=none;strokeColor=#788AA3;fontColor=#46495D;rounded=1;fontFamily=Georgia;" vertex="1" parent="d5lCtr-DyPGRIG8KfV5i-16">
          <mxGeometry x="34.99999999999977" width="145.00000000000023" height="30" as="geometry">
            <mxRectangle width="145.00000000000023" height="30" as="alternateBounds" />
          </mxGeometry>
        </mxCell>
        <mxCell id="CXDuRIByjEuDGlNMDxh7-98" value="" style="shape=tableRow;horizontal=0;startSize=0;swimlaneHead=0;swimlaneBody=0;fillColor=none;collapsible=0;dropTarget=0;points=[[0,0.5],[1,0.5]];portConstraint=eastwest;top=0;left=0;right=0;bottom=0;labelBackgroundColor=none;strokeColor=#788AA3;fontColor=#46495D;rounded=1;fontFamily=Georgia;" vertex="1" parent="CXDuRIByjEuDGlNMDxh7-94">
          <mxGeometry y="90" width="180" height="30" as="geometry" />
        </mxCell>
        <mxCell id="CXDuRIByjEuDGlNMDxh7-99" value="" style="shape=partialRectangle;connectable=0;fillColor=none;top=0;left=0;bottom=0;right=0;editable=1;overflow=hidden;whiteSpace=wrap;html=1;labelBackgroundColor=none;strokeColor=#788AA3;fontColor=#46495D;rounded=1;fontFamily=Georgia;" vertex="1" parent="CXDuRIByjEuDGlNMDxh7-98">
          <mxGeometry width="34.99999999999977" height="30" as="geometry">
            <mxRectangle width="34.99999999999977" height="30" as="alternateBounds" />
          </mxGeometry>
        </mxCell>
        <mxCell id="CXDuRIByjEuDGlNMDxh7-100" value="text" style="shape=partialRectangle;connectable=0;fillColor=none;top=0;left=0;bottom=0;right=0;align=left;spacingLeft=6;overflow=hidden;whiteSpace=wrap;html=1;labelBackgroundColor=none;strokeColor=#788AA3;fontColor=#46495D;rounded=1;fontFamily=Georgia;" vertex="1" parent="CXDuRIByjEuDGlNMDxh7-98">
          <mxGeometry x="34.99999999999977" width="145.00000000000023" height="30" as="geometry">
            <mxRectangle width="145.00000000000023" height="30" as="alternateBounds" />
          </mxGeometry>
        </mxCell>
        <mxCell id="CXDuRIByjEuDGlNMDxh7-101" value="" style="shape=tableRow;horizontal=0;startSize=0;swimlaneHead=0;swimlaneBody=0;fillColor=none;collapsible=0;dropTarget=0;points=[[0,0.5],[1,0.5]];portConstraint=eastwest;top=0;left=0;right=0;bottom=0;labelBackgroundColor=none;strokeColor=#788AA3;fontColor=#46495D;rounded=1;fontFamily=Georgia;" vertex="1" parent="CXDuRIByjEuDGlNMDxh7-94">
          <mxGeometry y="120" width="180" height="30" as="geometry" />
        </mxCell>
        <mxCell id="CXDuRIByjEuDGlNMDxh7-102" value="" style="shape=partialRectangle;connectable=0;fillColor=none;top=0;left=0;bottom=0;right=0;editable=1;overflow=hidden;whiteSpace=wrap;html=1;labelBackgroundColor=none;strokeColor=#788AA3;fontColor=#46495D;rounded=1;fontFamily=Georgia;" vertex="1" parent="CXDuRIByjEuDGlNMDxh7-101">
          <mxGeometry width="34.99999999999977" height="30" as="geometry">
            <mxRectangle width="34.99999999999977" height="30" as="alternateBounds" />
          </mxGeometry>
        </mxCell>
        <mxCell id="CXDuRIByjEuDGlNMDxh7-103" value="penalty" style="shape=partialRectangle;connectable=0;fillColor=none;top=0;left=0;bottom=0;right=0;align=left;spacingLeft=6;overflow=hidden;whiteSpace=wrap;html=1;labelBackgroundColor=none;strokeColor=#788AA3;fontColor=#46495D;rounded=1;fontFamily=Georgia;" vertex="1" parent="CXDuRIByjEuDGlNMDxh7-101">
          <mxGeometry x="34.99999999999977" width="145.00000000000023" height="30" as="geometry">
            <mxRectangle width="145.00000000000023" height="30" as="alternateBounds" />
          </mxGeometry>
        </mxCell>
        <mxCell id="CXDuRIByjEuDGlNMDxh7-175" value="Reset Pass" style="shape=table;startSize=30;container=1;collapsible=1;childLayout=tableLayout;fixedRows=1;rowLines=0;fontStyle=1;align=center;resizeLast=1;html=1;labelBackgroundColor=none;fillColor=#FFE6CC;strokeColor=#D79B00;fontColor=#46495D;rounded=1;strokeWidth=2;fontFamily=Georgia;" vertex="1" parent="1">
          <mxGeometry x="460" y="660" width="180" height="150" as="geometry" />
        </mxCell>
        <mxCell id="CXDuRIByjEuDGlNMDxh7-176" value="" style="shape=tableRow;horizontal=0;startSize=0;swimlaneHead=0;swimlaneBody=0;fillColor=none;collapsible=0;dropTarget=0;points=[[0,0.5],[1,0.5]];portConstraint=eastwest;top=0;left=0;right=0;bottom=1;labelBackgroundColor=none;strokeColor=#788AA3;fontColor=#46495D;rounded=1;fontFamily=Georgia;" vertex="1" parent="CXDuRIByjEuDGlNMDxh7-175">
          <mxGeometry y="30" width="180" height="30" as="geometry" />
        </mxCell>
        <mxCell id="CXDuRIByjEuDGlNMDxh7-177" value="PK" style="shape=partialRectangle;connectable=0;fillColor=none;top=0;left=0;bottom=0;right=0;fontStyle=1;overflow=hidden;whiteSpace=wrap;html=1;labelBackgroundColor=none;strokeColor=#788AA3;fontColor=#46495D;rounded=1;fontFamily=Georgia;" vertex="1" parent="CXDuRIByjEuDGlNMDxh7-176">
          <mxGeometry width="30" height="30" as="geometry">
            <mxRectangle width="30" height="30" as="alternateBounds" />
          </mxGeometry>
        </mxCell>
        <mxCell id="CXDuRIByjEuDGlNMDxh7-178" value="reset_id" style="shape=partialRectangle;connectable=0;fillColor=none;top=0;left=0;bottom=0;right=0;align=left;spacingLeft=6;fontStyle=5;overflow=hidden;whiteSpace=wrap;html=1;labelBackgroundColor=none;strokeColor=#788AA3;fontColor=#46495D;rounded=1;fontFamily=Georgia;" vertex="1" parent="CXDuRIByjEuDGlNMDxh7-176">
          <mxGeometry x="30" width="150" height="30" as="geometry">
            <mxRectangle width="150" height="30" as="alternateBounds" />
          </mxGeometry>
        </mxCell>
        <mxCell id="CXDuRIByjEuDGlNMDxh7-179" value="" style="shape=tableRow;horizontal=0;startSize=0;swimlaneHead=0;swimlaneBody=0;fillColor=none;collapsible=0;dropTarget=0;points=[[0,0.5],[1,0.5]];portConstraint=eastwest;top=0;left=0;right=0;bottom=0;labelBackgroundColor=none;strokeColor=#788AA3;fontColor=#46495D;rounded=1;fontFamily=Georgia;" vertex="1" parent="CXDuRIByjEuDGlNMDxh7-175">
          <mxGeometry y="60" width="180" height="30" as="geometry" />
        </mxCell>
        <mxCell id="CXDuRIByjEuDGlNMDxh7-180" value="&lt;b&gt;FK&lt;/b&gt;" style="shape=partialRectangle;connectable=0;fillColor=none;top=0;left=0;bottom=0;right=0;editable=1;overflow=hidden;whiteSpace=wrap;html=1;labelBackgroundColor=none;strokeColor=#788AA3;fontColor=#46495D;rounded=1;fontFamily=Georgia;" vertex="1" parent="CXDuRIByjEuDGlNMDxh7-179">
          <mxGeometry width="30" height="30" as="geometry">
            <mxRectangle width="30" height="30" as="alternateBounds" />
          </mxGeometry>
        </mxCell>
        <mxCell id="CXDuRIByjEuDGlNMDxh7-181" value="&lt;b&gt;user_id&lt;/b&gt;" style="shape=partialRectangle;connectable=0;fillColor=none;top=0;left=0;bottom=0;right=0;align=left;spacingLeft=6;overflow=hidden;whiteSpace=wrap;html=1;labelBackgroundColor=none;strokeColor=#788AA3;fontColor=#46495D;rounded=1;fontFamily=Georgia;" vertex="1" parent="CXDuRIByjEuDGlNMDxh7-179">
          <mxGeometry x="30" width="150" height="30" as="geometry">
            <mxRectangle width="150" height="30" as="alternateBounds" />
          </mxGeometry>
        </mxCell>
        <mxCell id="CXDuRIByjEuDGlNMDxh7-182" value="" style="shape=tableRow;horizontal=0;startSize=0;swimlaneHead=0;swimlaneBody=0;fillColor=none;collapsible=0;dropTarget=0;points=[[0,0.5],[1,0.5]];portConstraint=eastwest;top=0;left=0;right=0;bottom=0;labelBackgroundColor=none;strokeColor=#788AA3;fontColor=#46495D;rounded=1;fontFamily=Georgia;" vertex="1" parent="CXDuRIByjEuDGlNMDxh7-175">
          <mxGeometry y="90" width="180" height="30" as="geometry" />
        </mxCell>
        <mxCell id="CXDuRIByjEuDGlNMDxh7-183" value="" style="shape=partialRectangle;connectable=0;fillColor=none;top=0;left=0;bottom=0;right=0;editable=1;overflow=hidden;whiteSpace=wrap;html=1;labelBackgroundColor=none;strokeColor=#788AA3;fontColor=#46495D;rounded=1;fontFamily=Georgia;" vertex="1" parent="CXDuRIByjEuDGlNMDxh7-182">
          <mxGeometry width="30" height="30" as="geometry">
            <mxRectangle width="30" height="30" as="alternateBounds" />
          </mxGeometry>
        </mxCell>
        <mxCell id="CXDuRIByjEuDGlNMDxh7-184" value="token" style="shape=partialRectangle;connectable=0;fillColor=none;top=0;left=0;bottom=0;right=0;align=left;spacingLeft=6;overflow=hidden;whiteSpace=wrap;html=1;labelBackgroundColor=none;strokeColor=#788AA3;fontColor=#46495D;rounded=1;fontFamily=Georgia;" vertex="1" parent="CXDuRIByjEuDGlNMDxh7-182">
          <mxGeometry x="30" width="150" height="30" as="geometry">
            <mxRectangle width="150" height="30" as="alternateBounds" />
          </mxGeometry>
        </mxCell>
        <mxCell id="YQxqtUBQv5V27BiSvJei-7" style="shape=tableRow;horizontal=0;startSize=0;swimlaneHead=0;swimlaneBody=0;fillColor=none;collapsible=0;dropTarget=0;points=[[0,0.5],[1,0.5]];portConstraint=eastwest;top=0;left=0;right=0;bottom=0;labelBackgroundColor=none;strokeColor=#788AA3;fontColor=#46495D;rounded=1;fontFamily=Georgia;" vertex="1" parent="CXDuRIByjEuDGlNMDxh7-175">
          <mxGeometry y="120" width="180" height="30" as="geometry" />
        </mxCell>
        <mxCell id="YQxqtUBQv5V27BiSvJei-8" style="shape=partialRectangle;connectable=0;fillColor=none;top=0;left=0;bottom=0;right=0;editable=1;overflow=hidden;whiteSpace=wrap;html=1;labelBackgroundColor=none;strokeColor=#788AA3;fontColor=#46495D;rounded=1;fontFamily=Georgia;" vertex="1" parent="YQxqtUBQv5V27BiSvJei-7">
          <mxGeometry width="30" height="30" as="geometry">
            <mxRectangle width="30" height="30" as="alternateBounds" />
          </mxGeometry>
        </mxCell>
        <mxCell id="YQxqtUBQv5V27BiSvJei-9" value="expire_time" style="shape=partialRectangle;connectable=0;fillColor=none;top=0;left=0;bottom=0;right=0;align=left;spacingLeft=6;overflow=hidden;whiteSpace=wrap;html=1;labelBackgroundColor=none;strokeColor=#788AA3;fontColor=#46495D;rounded=1;fontFamily=Georgia;" vertex="1" parent="YQxqtUBQv5V27BiSvJei-7">
          <mxGeometry x="30" width="150" height="30" as="geometry">
            <mxRectangle width="150" height="30" as="alternateBounds" />
          </mxGeometry>
        </mxCell>
        <mxCell id="CXDuRIByjEuDGlNMDxh7-190" value="" style="edgeStyle=entityRelationEdgeStyle;fontSize=12;html=1;endArrow=ERmandOne;startArrow=ERmandOne;rounded=1;strokeColor=#D79B00;fontColor=#46495D;fillColor=#B2C9AB;exitX=1.003;exitY=0.336;exitDx=0;exitDy=0;strokeWidth=2;fontFamily=Georgia;exitPerimeter=0;entryX=0;entryY=0.336;entryDx=0;entryDy=0;entryPerimeter=0;" edge="1" parent="1" source="KckVIJdAY4vBUgBkro1C-42" target="KckVIJdAY4vBUgBkro1C-3">
          <mxGeometry width="100" height="100" relative="1" as="geometry">
            <mxPoint x="660" y="580" as="sourcePoint" />
            <mxPoint x="719" y="521" as="targetPoint" />
          </mxGeometry>
        </mxCell>
        <mxCell id="CXDuRIByjEuDGlNMDxh7-197" value="Playground" style="shape=table;startSize=30;container=1;collapsible=1;childLayout=tableLayout;fixedRows=1;rowLines=0;fontStyle=1;align=center;resizeLast=1;html=1;labelBackgroundColor=none;fillColor=#e1d5e7;strokeColor=#9673a6;rounded=1;strokeWidth=2;fontFamily=Georgia;" vertex="1" parent="1">
          <mxGeometry x="1110" y="230" width="180" height="210" as="geometry" />
        </mxCell>
        <mxCell id="CXDuRIByjEuDGlNMDxh7-198" value="" style="shape=tableRow;horizontal=0;startSize=0;swimlaneHead=0;swimlaneBody=0;fillColor=none;collapsible=0;dropTarget=0;points=[[0,0.5],[1,0.5]];portConstraint=eastwest;top=0;left=0;right=0;bottom=1;labelBackgroundColor=none;strokeColor=#788AA3;fontColor=#46495D;rounded=1;fontFamily=Georgia;" vertex="1" parent="CXDuRIByjEuDGlNMDxh7-197">
          <mxGeometry y="30" width="180" height="30" as="geometry" />
        </mxCell>
        <mxCell id="CXDuRIByjEuDGlNMDxh7-199" value="PK" style="shape=partialRectangle;connectable=0;fillColor=none;top=0;left=0;bottom=0;right=0;fontStyle=1;overflow=hidden;whiteSpace=wrap;html=1;labelBackgroundColor=none;strokeColor=#788AA3;fontColor=#46495D;rounded=1;fontFamily=Georgia;" vertex="1" parent="CXDuRIByjEuDGlNMDxh7-198">
          <mxGeometry width="30" height="30" as="geometry">
            <mxRectangle width="30" height="30" as="alternateBounds" />
          </mxGeometry>
        </mxCell>
        <mxCell id="CXDuRIByjEuDGlNMDxh7-200" value="pg_id" style="shape=partialRectangle;connectable=0;fillColor=none;top=0;left=0;bottom=0;right=0;align=left;spacingLeft=6;fontStyle=5;overflow=hidden;whiteSpace=wrap;html=1;labelBackgroundColor=none;strokeColor=#457B9D;fontColor=#46495D;rounded=1;strokeWidth=2;fontFamily=Georgia;" vertex="1" parent="CXDuRIByjEuDGlNMDxh7-198">
          <mxGeometry x="30" width="150" height="30" as="geometry">
            <mxRectangle width="150" height="30" as="alternateBounds" />
          </mxGeometry>
        </mxCell>
        <mxCell id="CXDuRIByjEuDGlNMDxh7-201" value="" style="shape=tableRow;horizontal=0;startSize=0;swimlaneHead=0;swimlaneBody=0;fillColor=none;collapsible=0;dropTarget=0;points=[[0,0.5],[1,0.5]];portConstraint=eastwest;top=0;left=0;right=0;bottom=0;labelBackgroundColor=none;strokeColor=#788AA3;fontColor=#46495D;rounded=1;fontFamily=Georgia;" vertex="1" parent="CXDuRIByjEuDGlNMDxh7-197">
          <mxGeometry y="60" width="180" height="30" as="geometry" />
        </mxCell>
        <mxCell id="CXDuRIByjEuDGlNMDxh7-202" value="&lt;b&gt;FK&lt;/b&gt;" style="shape=partialRectangle;connectable=0;fillColor=none;top=0;left=0;bottom=0;right=0;editable=1;overflow=hidden;whiteSpace=wrap;html=1;labelBackgroundColor=none;strokeColor=#788AA3;fontColor=#46495D;rounded=1;fontFamily=Georgia;" vertex="1" parent="CXDuRIByjEuDGlNMDxh7-201">
          <mxGeometry width="30" height="30" as="geometry">
            <mxRectangle width="30" height="30" as="alternateBounds" />
          </mxGeometry>
        </mxCell>
        <mxCell id="CXDuRIByjEuDGlNMDxh7-203" value="&lt;b&gt;algorithm_id&lt;/b&gt;" style="shape=partialRectangle;connectable=0;fillColor=none;top=0;left=0;bottom=0;right=0;align=left;spacingLeft=6;overflow=hidden;whiteSpace=wrap;html=1;labelBackgroundColor=none;strokeColor=#788AA3;fontColor=#46495D;rounded=1;strokeWidth=1;fontFamily=Georgia;" vertex="1" parent="CXDuRIByjEuDGlNMDxh7-201">
          <mxGeometry x="30" width="150" height="30" as="geometry">
            <mxRectangle width="150" height="30" as="alternateBounds" />
          </mxGeometry>
        </mxCell>
        <mxCell id="CXDuRIByjEuDGlNMDxh7-204" value="" style="shape=tableRow;horizontal=0;startSize=0;swimlaneHead=0;swimlaneBody=0;fillColor=none;collapsible=0;dropTarget=0;points=[[0,0.5],[1,0.5]];portConstraint=eastwest;top=0;left=0;right=0;bottom=0;labelBackgroundColor=none;strokeColor=#788AA3;fontColor=#46495D;rounded=1;fontFamily=Georgia;" vertex="1" parent="CXDuRIByjEuDGlNMDxh7-197">
          <mxGeometry y="90" width="180" height="30" as="geometry" />
        </mxCell>
        <mxCell id="CXDuRIByjEuDGlNMDxh7-205" value="&lt;b&gt;FK&lt;/b&gt;" style="shape=partialRectangle;connectable=0;fillColor=none;top=0;left=0;bottom=0;right=0;editable=1;overflow=hidden;whiteSpace=wrap;html=1;labelBackgroundColor=none;strokeColor=#788AA3;fontColor=#46495D;rounded=1;fontFamily=Georgia;" vertex="1" parent="CXDuRIByjEuDGlNMDxh7-204">
          <mxGeometry width="30" height="30" as="geometry">
            <mxRectangle width="30" height="30" as="alternateBounds" />
          </mxGeometry>
        </mxCell>
        <mxCell id="CXDuRIByjEuDGlNMDxh7-206" value="&lt;b&gt;user_id&lt;/b&gt;" style="shape=partialRectangle;connectable=0;fillColor=none;top=0;left=0;bottom=0;right=0;align=left;spacingLeft=6;overflow=hidden;whiteSpace=wrap;html=1;labelBackgroundColor=none;strokeColor=#788AA3;fontColor=#46495D;rounded=1;fontFamily=Georgia;" vertex="1" parent="CXDuRIByjEuDGlNMDxh7-204">
          <mxGeometry x="30" width="150" height="30" as="geometry">
            <mxRectangle width="150" height="30" as="alternateBounds" />
          </mxGeometry>
        </mxCell>
        <mxCell id="CXDuRIByjEuDGlNMDxh7-207" value="" style="shape=tableRow;horizontal=0;startSize=0;swimlaneHead=0;swimlaneBody=0;fillColor=none;collapsible=0;dropTarget=0;points=[[0,0.5],[1,0.5]];portConstraint=eastwest;top=0;left=0;right=0;bottom=0;labelBackgroundColor=none;strokeColor=#788AA3;fontColor=#46495D;rounded=1;fontFamily=Georgia;" vertex="1" parent="CXDuRIByjEuDGlNMDxh7-197">
          <mxGeometry y="120" width="180" height="30" as="geometry" />
        </mxCell>
        <mxCell id="CXDuRIByjEuDGlNMDxh7-208" value="" style="shape=partialRectangle;connectable=0;fillColor=none;top=0;left=0;bottom=0;right=0;editable=1;overflow=hidden;whiteSpace=wrap;html=1;labelBackgroundColor=none;strokeColor=#788AA3;fontColor=#46495D;rounded=1;fontFamily=Georgia;" vertex="1" parent="CXDuRIByjEuDGlNMDxh7-207">
          <mxGeometry width="30" height="30" as="geometry">
            <mxRectangle width="30" height="30" as="alternateBounds" />
          </mxGeometry>
        </mxCell>
        <mxCell id="CXDuRIByjEuDGlNMDxh7-209" value="title" style="shape=partialRectangle;connectable=0;fillColor=none;top=0;left=0;bottom=0;right=0;align=left;spacingLeft=6;overflow=hidden;whiteSpace=wrap;html=1;labelBackgroundColor=none;strokeColor=#788AA3;fontColor=#46495D;rounded=1;fontFamily=Georgia;" vertex="1" parent="CXDuRIByjEuDGlNMDxh7-207">
          <mxGeometry x="30" width="150" height="30" as="geometry">
            <mxRectangle width="150" height="30" as="alternateBounds" />
          </mxGeometry>
        </mxCell>
        <mxCell id="CXDuRIByjEuDGlNMDxh7-346" style="shape=tableRow;horizontal=0;startSize=0;swimlaneHead=0;swimlaneBody=0;fillColor=none;collapsible=0;dropTarget=0;points=[[0,0.5],[1,0.5]];portConstraint=eastwest;top=0;left=0;right=0;bottom=0;labelBackgroundColor=none;strokeColor=#788AA3;fontColor=#46495D;rounded=1;fontFamily=Georgia;" vertex="1" parent="CXDuRIByjEuDGlNMDxh7-197">
          <mxGeometry y="150" width="180" height="30" as="geometry" />
        </mxCell>
        <mxCell id="CXDuRIByjEuDGlNMDxh7-347" style="shape=partialRectangle;connectable=0;fillColor=none;top=0;left=0;bottom=0;right=0;editable=1;overflow=hidden;whiteSpace=wrap;html=1;labelBackgroundColor=none;strokeColor=#788AA3;fontColor=#46495D;rounded=1;fontFamily=Georgia;" vertex="1" parent="CXDuRIByjEuDGlNMDxh7-346">
          <mxGeometry width="30" height="30" as="geometry">
            <mxRectangle width="30" height="30" as="alternateBounds" />
          </mxGeometry>
        </mxCell>
        <mxCell id="CXDuRIByjEuDGlNMDxh7-348" value="canvas_data_json" style="shape=partialRectangle;connectable=0;fillColor=none;top=0;left=0;bottom=0;right=0;align=left;spacingLeft=6;overflow=hidden;whiteSpace=wrap;html=1;labelBackgroundColor=none;strokeColor=#788AA3;fontColor=#46495D;rounded=1;fontFamily=Georgia;" vertex="1" parent="CXDuRIByjEuDGlNMDxh7-346">
          <mxGeometry x="30" width="150" height="30" as="geometry">
            <mxRectangle width="150" height="30" as="alternateBounds" />
          </mxGeometry>
        </mxCell>
        <mxCell id="CXDuRIByjEuDGlNMDxh7-349" style="shape=tableRow;horizontal=0;startSize=0;swimlaneHead=0;swimlaneBody=0;fillColor=none;collapsible=0;dropTarget=0;points=[[0,0.5],[1,0.5]];portConstraint=eastwest;top=0;left=0;right=0;bottom=0;labelBackgroundColor=none;strokeColor=#788AA3;fontColor=#46495D;rounded=1;fontFamily=Georgia;" vertex="1" parent="CXDuRIByjEuDGlNMDxh7-197">
          <mxGeometry y="180" width="180" height="30" as="geometry" />
        </mxCell>
        <mxCell id="CXDuRIByjEuDGlNMDxh7-350" style="shape=partialRectangle;connectable=0;fillColor=none;top=0;left=0;bottom=0;right=0;editable=1;overflow=hidden;whiteSpace=wrap;html=1;labelBackgroundColor=none;strokeColor=#788AA3;fontColor=#46495D;rounded=1;fontFamily=Georgia;" vertex="1" parent="CXDuRIByjEuDGlNMDxh7-349">
          <mxGeometry width="30" height="30" as="geometry">
            <mxRectangle width="30" height="30" as="alternateBounds" />
          </mxGeometry>
        </mxCell>
        <mxCell id="CXDuRIByjEuDGlNMDxh7-351" value="timestmp" style="shape=partialRectangle;connectable=0;fillColor=none;top=0;left=0;bottom=0;right=0;align=left;spacingLeft=6;overflow=hidden;whiteSpace=wrap;html=1;labelBackgroundColor=none;strokeColor=#788AA3;fontColor=#46495D;rounded=1;fontFamily=Georgia;" vertex="1" parent="CXDuRIByjEuDGlNMDxh7-349">
          <mxGeometry x="30" width="150" height="30" as="geometry">
            <mxRectangle width="150" height="30" as="alternateBounds" />
          </mxGeometry>
        </mxCell>
        <mxCell id="CXDuRIByjEuDGlNMDxh7-226" value="UserActivity" style="shape=table;startSize=30;container=1;collapsible=1;childLayout=tableLayout;fixedRows=1;rowLines=0;fontStyle=1;align=center;resizeLast=1;html=1;whiteSpace=wrap;rounded=1;strokeColor=#6c8ebf;fillColor=#dae8fc;strokeWidth=2;fontFamily=Georgia;" vertex="1" parent="1">
          <mxGeometry x="990" y="480" width="180" height="270" as="geometry" />
        </mxCell>
        <mxCell id="CXDuRIByjEuDGlNMDxh7-227" value="" style="shape=tableRow;horizontal=0;startSize=0;swimlaneHead=0;swimlaneBody=0;fillColor=none;collapsible=0;dropTarget=0;points=[[0,0.5],[1,0.5]];portConstraint=eastwest;top=0;left=0;right=0;bottom=0;html=1;rounded=1;strokeColor=#788AA3;fontColor=#46495D;fontFamily=Georgia;" vertex="1" parent="CXDuRIByjEuDGlNMDxh7-226">
          <mxGeometry y="30" width="180" height="30" as="geometry" />
        </mxCell>
        <mxCell id="CXDuRIByjEuDGlNMDxh7-228" value="PK,FK1" style="shape=partialRectangle;connectable=0;fillColor=none;top=0;left=0;bottom=0;right=0;fontStyle=1;overflow=hidden;html=1;whiteSpace=wrap;rounded=1;strokeColor=#788AA3;fontColor=#46495D;fontFamily=Georgia;" vertex="1" parent="CXDuRIByjEuDGlNMDxh7-227">
          <mxGeometry width="60" height="30" as="geometry">
            <mxRectangle width="60" height="30" as="alternateBounds" />
          </mxGeometry>
        </mxCell>
        <mxCell id="CXDuRIByjEuDGlNMDxh7-229" value="user_id" style="shape=partialRectangle;connectable=0;fillColor=none;top=0;left=0;bottom=0;right=0;align=left;spacingLeft=6;fontStyle=5;overflow=hidden;html=1;whiteSpace=wrap;rounded=1;strokeColor=#788AA3;fontColor=#46495D;fontFamily=Georgia;" vertex="1" parent="CXDuRIByjEuDGlNMDxh7-227">
          <mxGeometry x="60" width="120" height="30" as="geometry">
            <mxRectangle width="120" height="30" as="alternateBounds" />
          </mxGeometry>
        </mxCell>
        <mxCell id="CXDuRIByjEuDGlNMDxh7-230" value="" style="shape=tableRow;horizontal=0;startSize=0;swimlaneHead=0;swimlaneBody=0;fillColor=none;collapsible=0;dropTarget=0;points=[[0,0.5],[1,0.5]];portConstraint=eastwest;top=0;left=0;right=0;bottom=1;html=1;rounded=1;strokeColor=#788AA3;fontColor=#46495D;fontFamily=Georgia;" vertex="1" parent="CXDuRIByjEuDGlNMDxh7-226">
          <mxGeometry y="60" width="180" height="30" as="geometry" />
        </mxCell>
        <mxCell id="CXDuRIByjEuDGlNMDxh7-231" value="PK,FK2" style="shape=partialRectangle;connectable=0;fillColor=none;top=0;left=0;bottom=0;right=0;fontStyle=1;overflow=hidden;html=1;whiteSpace=wrap;rounded=1;strokeColor=#788AA3;fontColor=#46495D;fontFamily=Georgia;" vertex="1" parent="CXDuRIByjEuDGlNMDxh7-230">
          <mxGeometry width="60" height="30" as="geometry">
            <mxRectangle width="60" height="30" as="alternateBounds" />
          </mxGeometry>
        </mxCell>
        <mxCell id="CXDuRIByjEuDGlNMDxh7-232" value="problem_id" style="shape=partialRectangle;connectable=0;fillColor=none;top=0;left=0;bottom=0;right=0;align=left;spacingLeft=6;fontStyle=5;overflow=hidden;html=1;whiteSpace=wrap;rounded=1;strokeColor=#788AA3;fontColor=#46495D;fontFamily=Georgia;" vertex="1" parent="CXDuRIByjEuDGlNMDxh7-230">
          <mxGeometry x="60" width="120" height="30" as="geometry">
            <mxRectangle width="120" height="30" as="alternateBounds" />
          </mxGeometry>
        </mxCell>
        <mxCell id="CXDuRIByjEuDGlNMDxh7-233" value="" style="shape=tableRow;horizontal=0;startSize=0;swimlaneHead=0;swimlaneBody=0;fillColor=none;collapsible=0;dropTarget=0;points=[[0,0.5],[1,0.5]];portConstraint=eastwest;top=0;left=0;right=0;bottom=0;html=1;rounded=1;strokeColor=#788AA3;fontColor=#46495D;fontFamily=Georgia;" vertex="1" parent="CXDuRIByjEuDGlNMDxh7-226">
          <mxGeometry y="90" width="180" height="30" as="geometry" />
        </mxCell>
        <mxCell id="CXDuRIByjEuDGlNMDxh7-234" value="" style="shape=partialRectangle;connectable=0;fillColor=none;top=0;left=0;bottom=0;right=0;editable=1;overflow=hidden;html=1;whiteSpace=wrap;rounded=1;strokeColor=#788AA3;fontColor=#46495D;fontFamily=Georgia;" vertex="1" parent="CXDuRIByjEuDGlNMDxh7-233">
          <mxGeometry width="60" height="30" as="geometry">
            <mxRectangle width="60" height="30" as="alternateBounds" />
          </mxGeometry>
        </mxCell>
        <mxCell id="CXDuRIByjEuDGlNMDxh7-235" value="&lt;div&gt;seen_time&lt;/div&gt;" style="shape=partialRectangle;connectable=0;fillColor=none;top=0;left=0;bottom=0;right=0;align=left;spacingLeft=6;overflow=hidden;html=1;whiteSpace=wrap;rounded=1;strokeColor=#788AA3;fontColor=#46495D;fontFamily=Georgia;" vertex="1" parent="CXDuRIByjEuDGlNMDxh7-233">
          <mxGeometry x="60" width="120" height="30" as="geometry">
            <mxRectangle width="120" height="30" as="alternateBounds" />
          </mxGeometry>
        </mxCell>
        <mxCell id="CXDuRIByjEuDGlNMDxh7-236" value="" style="shape=tableRow;horizontal=0;startSize=0;swimlaneHead=0;swimlaneBody=0;fillColor=none;collapsible=0;dropTarget=0;points=[[0,0.5],[1,0.5]];portConstraint=eastwest;top=0;left=0;right=0;bottom=0;html=1;rounded=1;strokeColor=#788AA3;fontColor=#46495D;fontFamily=Georgia;" vertex="1" parent="CXDuRIByjEuDGlNMDxh7-226">
          <mxGeometry y="120" width="180" height="30" as="geometry" />
        </mxCell>
        <mxCell id="CXDuRIByjEuDGlNMDxh7-237" value="" style="shape=partialRectangle;connectable=0;fillColor=none;top=0;left=0;bottom=0;right=0;editable=1;overflow=hidden;html=1;whiteSpace=wrap;rounded=1;strokeColor=#788AA3;fontColor=#46495D;fontFamily=Georgia;" vertex="1" parent="CXDuRIByjEuDGlNMDxh7-236">
          <mxGeometry width="60" height="30" as="geometry">
            <mxRectangle width="60" height="30" as="alternateBounds" />
          </mxGeometry>
        </mxCell>
        <mxCell id="CXDuRIByjEuDGlNMDxh7-238" value="n_attempts" style="shape=partialRectangle;connectable=0;fillColor=none;top=0;left=0;bottom=0;right=0;align=left;spacingLeft=6;overflow=hidden;html=1;whiteSpace=wrap;rounded=1;strokeColor=#788AA3;fontColor=#46495D;fontFamily=Georgia;" vertex="1" parent="CXDuRIByjEuDGlNMDxh7-236">
          <mxGeometry x="60" width="120" height="30" as="geometry">
            <mxRectangle width="120" height="30" as="alternateBounds" />
          </mxGeometry>
        </mxCell>
        <mxCell id="CXDuRIByjEuDGlNMDxh7-239" style="shape=tableRow;horizontal=0;startSize=0;swimlaneHead=0;swimlaneBody=0;fillColor=none;collapsible=0;dropTarget=0;points=[[0,0.5],[1,0.5]];portConstraint=eastwest;top=0;left=0;right=0;bottom=0;html=1;rounded=1;strokeColor=#788AA3;fontColor=#46495D;fontFamily=Georgia;" vertex="1" parent="CXDuRIByjEuDGlNMDxh7-226">
          <mxGeometry y="150" width="180" height="30" as="geometry" />
        </mxCell>
        <mxCell id="CXDuRIByjEuDGlNMDxh7-240" style="shape=partialRectangle;connectable=0;fillColor=none;top=0;left=0;bottom=0;right=0;editable=1;overflow=hidden;html=1;whiteSpace=wrap;rounded=1;strokeColor=#788AA3;fontColor=#46495D;fontFamily=Georgia;" vertex="1" parent="CXDuRIByjEuDGlNMDxh7-239">
          <mxGeometry width="60" height="30" as="geometry">
            <mxRectangle width="60" height="30" as="alternateBounds" />
          </mxGeometry>
        </mxCell>
        <mxCell id="CXDuRIByjEuDGlNMDxh7-241" value="first_solve_time" style="shape=partialRectangle;connectable=0;fillColor=none;top=0;left=0;bottom=0;right=0;align=left;spacingLeft=6;overflow=hidden;html=1;whiteSpace=wrap;rounded=1;strokeColor=#788AA3;fontColor=#46495D;fontFamily=Georgia;" vertex="1" parent="CXDuRIByjEuDGlNMDxh7-239">
          <mxGeometry x="60" width="120" height="30" as="geometry">
            <mxRectangle width="120" height="30" as="alternateBounds" />
          </mxGeometry>
        </mxCell>
        <mxCell id="c58-_ZKe09oXD-2eJGrU-1" style="shape=tableRow;horizontal=0;startSize=0;swimlaneHead=0;swimlaneBody=0;fillColor=none;collapsible=0;dropTarget=0;points=[[0,0.5],[1,0.5]];portConstraint=eastwest;top=0;left=0;right=0;bottom=0;html=1;rounded=1;strokeColor=#788AA3;fontColor=#46495D;fontFamily=Georgia;" vertex="1" parent="CXDuRIByjEuDGlNMDxh7-226">
          <mxGeometry y="180" width="180" height="30" as="geometry" />
        </mxCell>
        <mxCell id="c58-_ZKe09oXD-2eJGrU-2" style="shape=partialRectangle;connectable=0;fillColor=none;top=0;left=0;bottom=0;right=0;editable=1;overflow=hidden;html=1;whiteSpace=wrap;rounded=1;strokeColor=#788AA3;fontColor=#46495D;fontFamily=Georgia;" vertex="1" parent="c58-_ZKe09oXD-2eJGrU-1">
          <mxGeometry width="60" height="30" as="geometry">
            <mxRectangle width="60" height="30" as="alternateBounds" />
          </mxGeometry>
        </mxCell>
        <mxCell id="c58-_ZKe09oXD-2eJGrU-3" value="points" style="shape=partialRectangle;connectable=0;fillColor=none;top=0;left=0;bottom=0;right=0;align=left;spacingLeft=6;overflow=hidden;html=1;whiteSpace=wrap;rounded=1;strokeColor=#788AA3;fontColor=#46495D;fontFamily=Georgia;" vertex="1" parent="c58-_ZKe09oXD-2eJGrU-1">
          <mxGeometry x="60" width="120" height="30" as="geometry">
            <mxRectangle width="120" height="30" as="alternateBounds" />
          </mxGeometry>
        </mxCell>
        <mxCell id="CXDuRIByjEuDGlNMDxh7-289" style="shape=tableRow;horizontal=0;startSize=0;swimlaneHead=0;swimlaneBody=0;fillColor=none;collapsible=0;dropTarget=0;points=[[0,0.5],[1,0.5]];portConstraint=eastwest;top=0;left=0;right=0;bottom=0;html=1;rounded=1;strokeColor=#788AA3;fontColor=#46495D;fontFamily=Georgia;" vertex="1" parent="CXDuRIByjEuDGlNMDxh7-226">
          <mxGeometry y="210" width="180" height="30" as="geometry" />
        </mxCell>
        <mxCell id="CXDuRIByjEuDGlNMDxh7-290" style="shape=partialRectangle;connectable=0;fillColor=none;top=0;left=0;bottom=0;right=0;editable=1;overflow=hidden;html=1;whiteSpace=wrap;rounded=1;strokeColor=#788AA3;fontColor=#46495D;fontFamily=Georgia;" vertex="1" parent="CXDuRIByjEuDGlNMDxh7-289">
          <mxGeometry width="60" height="30" as="geometry">
            <mxRectangle width="60" height="30" as="alternateBounds" />
          </mxGeometry>
        </mxCell>
        <mxCell id="CXDuRIByjEuDGlNMDxh7-291" value="n_hints" style="shape=partialRectangle;connectable=0;fillColor=none;top=0;left=0;bottom=0;right=0;align=left;spacingLeft=6;overflow=hidden;html=1;whiteSpace=wrap;rounded=1;strokeColor=#788AA3;fontColor=#46495D;fontFamily=Georgia;" vertex="1" parent="CXDuRIByjEuDGlNMDxh7-289">
          <mxGeometry x="60" width="120" height="30" as="geometry">
            <mxRectangle width="120" height="30" as="alternateBounds" />
          </mxGeometry>
        </mxCell>
        <mxCell id="CXDuRIByjEuDGlNMDxh7-292" style="shape=tableRow;horizontal=0;startSize=0;swimlaneHead=0;swimlaneBody=0;fillColor=none;collapsible=0;dropTarget=0;points=[[0,0.5],[1,0.5]];portConstraint=eastwest;top=0;left=0;right=0;bottom=0;html=1;rounded=1;strokeColor=#788AA3;fontColor=#46495D;fontFamily=Georgia;" vertex="1" parent="CXDuRIByjEuDGlNMDxh7-226">
          <mxGeometry y="240" width="180" height="30" as="geometry" />
        </mxCell>
        <mxCell id="CXDuRIByjEuDGlNMDxh7-293" style="shape=partialRectangle;connectable=0;fillColor=none;top=0;left=0;bottom=0;right=0;editable=1;overflow=hidden;html=1;whiteSpace=wrap;rounded=1;strokeColor=#788AA3;fontColor=#46495D;fontFamily=Georgia;" vertex="1" parent="CXDuRIByjEuDGlNMDxh7-292">
          <mxGeometry width="60" height="30" as="geometry">
            <mxRectangle width="60" height="30" as="alternateBounds" />
          </mxGeometry>
        </mxCell>
        <mxCell id="CXDuRIByjEuDGlNMDxh7-294" value="rating" style="shape=partialRectangle;connectable=0;fillColor=none;top=0;left=0;bottom=0;right=0;align=left;spacingLeft=6;overflow=hidden;html=1;whiteSpace=wrap;rounded=1;strokeColor=#788AA3;fontColor=#46495D;fontFamily=Georgia;" vertex="1" parent="CXDuRIByjEuDGlNMDxh7-292">
          <mxGeometry x="60" width="120" height="30" as="geometry">
            <mxRectangle width="120" height="30" as="alternateBounds" />
          </mxGeometry>
        </mxCell>
        <mxCell id="CXDuRIByjEuDGlNMDxh7-243" value="" style="edgeStyle=orthogonalEdgeStyle;fontSize=12;html=1;endArrow=ERzeroToOne;startArrow=ERmandOne;rounded=1;strokeColor=#d79b00;fontColor=#46495D;fillColor=#ffe6cc;strokeWidth=2;fontFamily=Georgia;endFill=0;" edge="1" parent="1" source="KckVIJdAY4vBUgBkro1C-3" target="CXDuRIByjEuDGlNMDxh7-227">
          <mxGeometry width="100" height="100" relative="1" as="geometry">
            <mxPoint x="915" y="569.57" as="sourcePoint" />
            <mxPoint x="990" y="569.57" as="targetPoint" />
            <Array as="points">
              <mxPoint x="970" y="530" />
              <mxPoint x="970" y="530" />
            </Array>
          </mxGeometry>
        </mxCell>
        <mxCell id="CXDuRIByjEuDGlNMDxh7-244" value="" style="edgeStyle=orthogonalEdgeStyle;fontSize=12;html=1;endArrow=ERmandOne;startArrow=ERzeroToOne;rounded=1;strokeColor=#6c8ebf;fontColor=#46495D;fillColor=#dae8fc;strokeWidth=2;exitX=1.004;exitY=0.319;exitDx=0;exitDy=0;fontFamily=Georgia;startFill=0;exitPerimeter=0;" edge="1" parent="1" source="CXDuRIByjEuDGlNMDxh7-230">
          <mxGeometry width="100" height="100" relative="1" as="geometry">
            <mxPoint x="1200" y="584.7" as="sourcePoint" />
            <mxPoint x="1245" y="520" as="targetPoint" />
            <Array as="points">
              <mxPoint x="1230" y="550" />
              <mxPoint x="1230" y="520" />
            </Array>
          </mxGeometry>
        </mxCell>
        <mxCell id="CXDuRIByjEuDGlNMDxh7-245" value="" style="edgeStyle=orthogonalEdgeStyle;fontSize=12;html=1;endArrow=ERmandOne;startArrow=ERzeroToMany;rounded=1;strokeColor=#6c8ebf;fontColor=#46495D;fillColor=#dae8fc;exitX=1;exitY=0.5;exitDx=0;exitDy=0;strokeWidth=2;startFill=0;fontFamily=Georgia;entryX=0;entryY=0.667;entryDx=0;entryDy=0;entryPerimeter=0;" edge="1" parent="1" source="KckVIJdAY4vBUgBkro1C-19" target="CXDuRIByjEuDGlNMDxh7-41">
          <mxGeometry width="100" height="100" relative="1" as="geometry">
            <mxPoint x="1185" y="570" as="sourcePoint" />
            <mxPoint x="1490" y="540" as="targetPoint" />
            <Array as="points">
              <mxPoint x="1467" y="555" />
              <mxPoint x="1467" y="530" />
            </Array>
          </mxGeometry>
        </mxCell>
        <mxCell id="CXDuRIByjEuDGlNMDxh7-268" value="" style="edgeStyle=orthogonalEdgeStyle;fontSize=12;html=1;endArrow=ERmandOne;startArrow=ERzeroToMany;rounded=1;strokeColor=#6c8ebf;fontColor=#46495D;fillColor=#dae8fc;strokeWidth=2;startFill=0;fontFamily=Georgia;exitX=0;exitY=0.5;exitDx=0;exitDy=0;entryX=-0.001;entryY=0.664;entryDx=0;entryDy=0;entryPerimeter=0;" edge="1" parent="1" source="d5lCtr-DyPGRIG8KfV5i-16" target="KckVIJdAY4vBUgBkro1C-16">
          <mxGeometry width="100" height="100" relative="1" as="geometry">
            <mxPoint x="1233" y="845" as="sourcePoint" />
            <mxPoint x="1233" y="530" as="targetPoint" />
            <Array as="points">
              <mxPoint x="1210" y="935" />
              <mxPoint x="1210" y="530" />
            </Array>
          </mxGeometry>
        </mxCell>
        <mxCell id="CXDuRIByjEuDGlNMDxh7-295" value="Submission" style="shape=table;startSize=30;container=1;collapsible=1;childLayout=tableLayout;fixedRows=1;rowLines=0;fontStyle=1;align=center;resizeLast=1;html=1;whiteSpace=wrap;rounded=1;strokeColor=#6c8ebf;fillColor=#dae8fc;strokeWidth=2;fontFamily=Georgia;" vertex="1" parent="1">
          <mxGeometry x="990" y="860" width="180" height="210" as="geometry" />
        </mxCell>
        <mxCell id="CXDuRIByjEuDGlNMDxh7-299" value="" style="shape=tableRow;horizontal=0;startSize=0;swimlaneHead=0;swimlaneBody=0;fillColor=none;collapsible=0;dropTarget=0;points=[[0,0.5],[1,0.5]];portConstraint=eastwest;top=0;left=0;right=0;bottom=1;html=1;rounded=1;strokeColor=#788AA3;fontColor=#46495D;fontFamily=Georgia;" vertex="1" parent="CXDuRIByjEuDGlNMDxh7-295">
          <mxGeometry y="30" width="180" height="30" as="geometry" />
        </mxCell>
        <mxCell id="CXDuRIByjEuDGlNMDxh7-300" value="PK" style="shape=partialRectangle;connectable=0;fillColor=none;top=0;left=0;bottom=0;right=0;fontStyle=1;overflow=hidden;html=1;whiteSpace=wrap;rounded=1;strokeColor=#788AA3;fontColor=#46495D;fontFamily=Georgia;" vertex="1" parent="CXDuRIByjEuDGlNMDxh7-299">
          <mxGeometry width="40" height="30" as="geometry">
            <mxRectangle width="40" height="30" as="alternateBounds" />
          </mxGeometry>
        </mxCell>
        <mxCell id="CXDuRIByjEuDGlNMDxh7-301" value="submission_id" style="shape=partialRectangle;connectable=0;fillColor=none;top=0;left=0;bottom=0;right=0;align=left;spacingLeft=6;fontStyle=5;overflow=hidden;html=1;whiteSpace=wrap;rounded=1;strokeColor=#788AA3;fontColor=#46495D;fontFamily=Georgia;" vertex="1" parent="CXDuRIByjEuDGlNMDxh7-299">
          <mxGeometry x="40" width="140" height="30" as="geometry">
            <mxRectangle width="140" height="30" as="alternateBounds" />
          </mxGeometry>
        </mxCell>
        <mxCell id="d5lCtr-DyPGRIG8KfV5i-13" style="shape=tableRow;horizontal=0;startSize=0;swimlaneHead=0;swimlaneBody=0;fillColor=none;collapsible=0;dropTarget=0;points=[[0,0.5],[1,0.5]];portConstraint=eastwest;top=0;left=0;right=0;bottom=0;html=1;rounded=1;strokeColor=#788AA3;fontColor=#46495D;fontFamily=Georgia;" vertex="1" parent="CXDuRIByjEuDGlNMDxh7-295">
          <mxGeometry y="60" width="180" height="30" as="geometry" />
        </mxCell>
        <mxCell id="d5lCtr-DyPGRIG8KfV5i-14" value="&lt;b&gt;FK&lt;/b&gt;" style="shape=partialRectangle;connectable=0;fillColor=none;top=0;left=0;bottom=0;right=0;editable=1;overflow=hidden;html=1;whiteSpace=wrap;rounded=1;strokeColor=#788AA3;fontColor=#46495D;fontFamily=Georgia;" vertex="1" parent="d5lCtr-DyPGRIG8KfV5i-13">
          <mxGeometry width="40" height="30" as="geometry">
            <mxRectangle width="40" height="30" as="alternateBounds" />
          </mxGeometry>
        </mxCell>
        <mxCell id="d5lCtr-DyPGRIG8KfV5i-15" value="&lt;b&gt;user_id&lt;/b&gt;" style="shape=partialRectangle;connectable=0;fillColor=none;top=0;left=0;bottom=0;right=0;align=left;spacingLeft=6;overflow=hidden;html=1;whiteSpace=wrap;rounded=1;strokeColor=#788AA3;fontColor=#46495D;fontFamily=Georgia;" vertex="1" parent="d5lCtr-DyPGRIG8KfV5i-13">
          <mxGeometry x="40" width="140" height="30" as="geometry">
            <mxRectangle width="140" height="30" as="alternateBounds" />
          </mxGeometry>
        </mxCell>
        <mxCell id="d5lCtr-DyPGRIG8KfV5i-10" style="shape=tableRow;horizontal=0;startSize=0;swimlaneHead=0;swimlaneBody=0;fillColor=none;collapsible=0;dropTarget=0;points=[[0,0.5],[1,0.5]];portConstraint=eastwest;top=0;left=0;right=0;bottom=0;html=1;rounded=1;strokeColor=#788AA3;fontColor=#46495D;fontFamily=Georgia;" vertex="1" parent="CXDuRIByjEuDGlNMDxh7-295">
          <mxGeometry y="90" width="180" height="30" as="geometry" />
        </mxCell>
        <mxCell id="d5lCtr-DyPGRIG8KfV5i-11" value="&lt;b&gt;FK&lt;/b&gt;" style="shape=partialRectangle;connectable=0;fillColor=none;top=0;left=0;bottom=0;right=0;editable=1;overflow=hidden;html=1;whiteSpace=wrap;rounded=1;strokeColor=#788AA3;fontColor=#46495D;fontFamily=Georgia;" vertex="1" parent="d5lCtr-DyPGRIG8KfV5i-10">
          <mxGeometry width="40" height="30" as="geometry">
            <mxRectangle width="40" height="30" as="alternateBounds" />
          </mxGeometry>
        </mxCell>
        <mxCell id="d5lCtr-DyPGRIG8KfV5i-12" value="&lt;b&gt;problem_id&lt;/b&gt;" style="shape=partialRectangle;connectable=0;fillColor=none;top=0;left=0;bottom=0;right=0;align=left;spacingLeft=6;overflow=hidden;html=1;whiteSpace=wrap;rounded=1;strokeColor=#788AA3;fontColor=#46495D;fontFamily=Georgia;" vertex="1" parent="d5lCtr-DyPGRIG8KfV5i-10">
          <mxGeometry x="40" width="140" height="30" as="geometry">
            <mxRectangle width="140" height="30" as="alternateBounds" />
          </mxGeometry>
        </mxCell>
        <mxCell id="CXDuRIByjEuDGlNMDxh7-302" value="" style="shape=tableRow;horizontal=0;startSize=0;swimlaneHead=0;swimlaneBody=0;fillColor=none;collapsible=0;dropTarget=0;points=[[0,0.5],[1,0.5]];portConstraint=eastwest;top=0;left=0;right=0;bottom=0;html=1;rounded=1;strokeColor=#788AA3;fontColor=#46495D;fontFamily=Georgia;" vertex="1" parent="CXDuRIByjEuDGlNMDxh7-295">
          <mxGeometry y="120" width="180" height="30" as="geometry" />
        </mxCell>
        <mxCell id="CXDuRIByjEuDGlNMDxh7-303" value="" style="shape=partialRectangle;connectable=0;fillColor=none;top=0;left=0;bottom=0;right=0;editable=1;overflow=hidden;html=1;whiteSpace=wrap;rounded=1;strokeColor=#788AA3;fontColor=#46495D;fontFamily=Georgia;" vertex="1" parent="CXDuRIByjEuDGlNMDxh7-302">
          <mxGeometry width="40" height="30" as="geometry">
            <mxRectangle width="40" height="30" as="alternateBounds" />
          </mxGeometry>
        </mxCell>
        <mxCell id="CXDuRIByjEuDGlNMDxh7-304" value="timestmp" style="shape=partialRectangle;connectable=0;fillColor=none;top=0;left=0;bottom=0;right=0;align=left;spacingLeft=6;overflow=hidden;html=1;whiteSpace=wrap;rounded=1;strokeColor=#788AA3;fontColor=#46495D;fontFamily=Georgia;" vertex="1" parent="CXDuRIByjEuDGlNMDxh7-302">
          <mxGeometry x="40" width="140" height="30" as="geometry">
            <mxRectangle width="140" height="30" as="alternateBounds" />
          </mxGeometry>
        </mxCell>
        <mxCell id="CXDuRIByjEuDGlNMDxh7-305" value="" style="shape=tableRow;horizontal=0;startSize=0;swimlaneHead=0;swimlaneBody=0;fillColor=none;collapsible=0;dropTarget=0;points=[[0,0.5],[1,0.5]];portConstraint=eastwest;top=0;left=0;right=0;bottom=0;html=1;rounded=1;strokeColor=#788AA3;fontColor=#46495D;fontFamily=Georgia;" vertex="1" parent="CXDuRIByjEuDGlNMDxh7-295">
          <mxGeometry y="150" width="180" height="30" as="geometry" />
        </mxCell>
        <mxCell id="CXDuRIByjEuDGlNMDxh7-306" value="" style="shape=partialRectangle;connectable=0;fillColor=none;top=0;left=0;bottom=0;right=0;editable=1;overflow=hidden;html=1;whiteSpace=wrap;rounded=1;strokeColor=#788AA3;fontColor=#46495D;fontFamily=Georgia;" vertex="1" parent="CXDuRIByjEuDGlNMDxh7-305">
          <mxGeometry width="40" height="30" as="geometry">
            <mxRectangle width="40" height="30" as="alternateBounds" />
          </mxGeometry>
        </mxCell>
        <mxCell id="CXDuRIByjEuDGlNMDxh7-307" value="answer_json" style="shape=partialRectangle;connectable=0;fillColor=none;top=0;left=0;bottom=0;right=0;align=left;spacingLeft=6;overflow=hidden;html=1;whiteSpace=wrap;rounded=1;strokeColor=#788AA3;fontColor=#46495D;fontFamily=Georgia;" vertex="1" parent="CXDuRIByjEuDGlNMDxh7-305">
          <mxGeometry x="40" width="140" height="30" as="geometry">
            <mxRectangle width="140" height="30" as="alternateBounds" />
          </mxGeometry>
        </mxCell>
        <mxCell id="CXDuRIByjEuDGlNMDxh7-308" style="shape=tableRow;horizontal=0;startSize=0;swimlaneHead=0;swimlaneBody=0;fillColor=none;collapsible=0;dropTarget=0;points=[[0,0.5],[1,0.5]];portConstraint=eastwest;top=0;left=0;right=0;bottom=0;html=1;rounded=1;strokeColor=#788AA3;fontColor=#46495D;fontFamily=Georgia;" vertex="1" parent="CXDuRIByjEuDGlNMDxh7-295">
          <mxGeometry y="180" width="180" height="30" as="geometry" />
        </mxCell>
        <mxCell id="CXDuRIByjEuDGlNMDxh7-309" style="shape=partialRectangle;connectable=0;fillColor=none;top=0;left=0;bottom=0;right=0;editable=1;overflow=hidden;html=1;whiteSpace=wrap;rounded=1;strokeColor=#788AA3;fontColor=#46495D;fontFamily=Georgia;" vertex="1" parent="CXDuRIByjEuDGlNMDxh7-308">
          <mxGeometry width="40" height="30" as="geometry">
            <mxRectangle width="40" height="30" as="alternateBounds" />
          </mxGeometry>
        </mxCell>
        <mxCell id="CXDuRIByjEuDGlNMDxh7-310" value="verdict" style="shape=partialRectangle;connectable=0;fillColor=none;top=0;left=0;bottom=0;right=0;align=left;spacingLeft=6;overflow=hidden;html=1;whiteSpace=wrap;rounded=1;strokeColor=#788AA3;fontColor=#46495D;fontFamily=Georgia;" vertex="1" parent="CXDuRIByjEuDGlNMDxh7-308">
          <mxGeometry x="40" width="140" height="30" as="geometry">
            <mxRectangle width="140" height="30" as="alternateBounds" />
          </mxGeometry>
        </mxCell>
        <mxCell id="CXDuRIByjEuDGlNMDxh7-317" value="" style="edgeStyle=orthogonalEdgeStyle;fontSize=12;html=1;endArrow=ERmandOne;startArrow=ERzeroToMany;rounded=1;strokeColor=#6c8ebf;fontColor=#46495D;fillColor=#dae8fc;strokeWidth=2;startFill=0;fontFamily=Georgia;entryX=1.004;entryY=-0.006;entryDx=0;entryDy=0;entryPerimeter=0;exitX=0;exitY=0.5;exitDx=0;exitDy=0;" edge="1" parent="1" source="d5lCtr-DyPGRIG8KfV5i-13" target="KckVIJdAY4vBUgBkro1C-6">
          <mxGeometry width="100" height="100" relative="1" as="geometry">
            <mxPoint x="980" y="892.5" as="sourcePoint" />
            <mxPoint x="890" y="547.5" as="targetPoint" />
            <Array as="points">
              <mxPoint x="940" y="935" />
              <mxPoint x="940" y="540" />
            </Array>
          </mxGeometry>
        </mxCell>
        <mxCell id="CXDuRIByjEuDGlNMDxh7-320" value="" style="edgeStyle=orthogonalEdgeStyle;fontSize=12;html=1;endArrow=ERmandOne;startArrow=ERzeroToMany;rounded=1;strokeColor=#6c8ebf;fontColor=#46495D;fillColor=#dae8fc;strokeWidth=2;fontFamily=Georgia;startFill=0;entryX=-0.008;entryY=0.09;entryDx=0;entryDy=0;entryPerimeter=0;exitX=1;exitY=0.667;exitDx=0;exitDy=0;exitPerimeter=0;" edge="1" parent="1" source="d5lCtr-DyPGRIG8KfV5i-10" target="KckVIJdAY4vBUgBkro1C-15">
          <mxGeometry width="100" height="100" relative="1" as="geometry">
            <mxPoint x="1180" y="990" as="sourcePoint" />
            <mxPoint x="1237.05" y="513" as="targetPoint" />
            <Array as="points">
              <mxPoint x="1200" y="970" />
              <mxPoint x="1200" y="512" />
              <mxPoint x="1244" y="512" />
            </Array>
          </mxGeometry>
        </mxCell>
        <mxCell id="CXDuRIByjEuDGlNMDxh7-321" value="Prompt" style="shape=table;startSize=30;container=1;collapsible=1;childLayout=tableLayout;fixedRows=1;rowLines=0;fontStyle=1;align=center;resizeLast=1;html=1;labelBackgroundColor=none;fillColor=#D5E8D4;strokeColor=#82B366;fontColor=#46495D;rounded=1;strokeWidth=2;fontFamily=Georgia;" vertex="1" parent="1">
          <mxGeometry x="460" y="860" width="180" height="180" as="geometry" />
        </mxCell>
        <mxCell id="CXDuRIByjEuDGlNMDxh7-322" value="" style="shape=tableRow;horizontal=0;startSize=0;swimlaneHead=0;swimlaneBody=0;fillColor=none;collapsible=0;dropTarget=0;points=[[0,0.5],[1,0.5]];portConstraint=eastwest;top=0;left=0;right=0;bottom=1;labelBackgroundColor=none;strokeColor=#788AA3;fontColor=#46495D;rounded=1;fontFamily=Georgia;" vertex="1" parent="CXDuRIByjEuDGlNMDxh7-321">
          <mxGeometry y="30" width="180" height="30" as="geometry" />
        </mxCell>
        <mxCell id="CXDuRIByjEuDGlNMDxh7-323" value="PK" style="shape=partialRectangle;connectable=0;fillColor=none;top=0;left=0;bottom=0;right=0;fontStyle=1;overflow=hidden;whiteSpace=wrap;html=1;labelBackgroundColor=none;strokeColor=#788AA3;fontColor=#46495D;rounded=1;fontFamily=Georgia;" vertex="1" parent="CXDuRIByjEuDGlNMDxh7-322">
          <mxGeometry width="30" height="30" as="geometry">
            <mxRectangle width="30" height="30" as="alternateBounds" />
          </mxGeometry>
        </mxCell>
        <mxCell id="CXDuRIByjEuDGlNMDxh7-324" value="prompt_id" style="shape=partialRectangle;connectable=0;fillColor=none;top=0;left=0;bottom=0;right=0;align=left;spacingLeft=6;fontStyle=5;overflow=hidden;whiteSpace=wrap;html=1;labelBackgroundColor=none;strokeColor=#457B9D;fontColor=#46495D;rounded=1;strokeWidth=1;fontFamily=Georgia;" vertex="1" parent="CXDuRIByjEuDGlNMDxh7-322">
          <mxGeometry x="30" width="150" height="30" as="geometry">
            <mxRectangle width="150" height="30" as="alternateBounds" />
          </mxGeometry>
        </mxCell>
        <mxCell id="CXDuRIByjEuDGlNMDxh7-325" value="" style="shape=tableRow;horizontal=0;startSize=0;swimlaneHead=0;swimlaneBody=0;fillColor=none;collapsible=0;dropTarget=0;points=[[0,0.5],[1,0.5]];portConstraint=eastwest;top=0;left=0;right=0;bottom=0;labelBackgroundColor=none;strokeColor=#788AA3;fontColor=#46495D;rounded=1;fontFamily=Georgia;" vertex="1" parent="CXDuRIByjEuDGlNMDxh7-321">
          <mxGeometry y="60" width="180" height="30" as="geometry" />
        </mxCell>
        <mxCell id="CXDuRIByjEuDGlNMDxh7-326" value="&lt;b&gt;FK&lt;/b&gt;" style="shape=partialRectangle;connectable=0;fillColor=none;top=0;left=0;bottom=0;right=0;editable=1;overflow=hidden;whiteSpace=wrap;html=1;labelBackgroundColor=none;strokeColor=#788AA3;fontColor=#46495D;rounded=1;fontFamily=Georgia;" vertex="1" parent="CXDuRIByjEuDGlNMDxh7-325">
          <mxGeometry width="30" height="30" as="geometry">
            <mxRectangle width="30" height="30" as="alternateBounds" />
          </mxGeometry>
        </mxCell>
        <mxCell id="CXDuRIByjEuDGlNMDxh7-327" value="&lt;b&gt;chat_id&lt;/b&gt;" style="shape=partialRectangle;connectable=0;fillColor=none;top=0;left=0;bottom=0;right=0;align=left;spacingLeft=6;overflow=hidden;whiteSpace=wrap;html=1;labelBackgroundColor=none;strokeColor=#788AA3;fontColor=#46495D;rounded=1;strokeWidth=1;fontFamily=Georgia;" vertex="1" parent="CXDuRIByjEuDGlNMDxh7-325">
          <mxGeometry x="30" width="150" height="30" as="geometry">
            <mxRectangle width="150" height="30" as="alternateBounds" />
          </mxGeometry>
        </mxCell>
        <mxCell id="nExtuXUVH1HOBiq4Qu6i-1" style="shape=tableRow;horizontal=0;startSize=0;swimlaneHead=0;swimlaneBody=0;fillColor=none;collapsible=0;dropTarget=0;points=[[0,0.5],[1,0.5]];portConstraint=eastwest;top=0;left=0;right=0;bottom=0;labelBackgroundColor=none;strokeColor=#788AA3;fontColor=#46495D;rounded=1;fontFamily=Georgia;" vertex="1" parent="CXDuRIByjEuDGlNMDxh7-321">
          <mxGeometry y="90" width="180" height="30" as="geometry" />
        </mxCell>
        <mxCell id="nExtuXUVH1HOBiq4Qu6i-2" style="shape=partialRectangle;connectable=0;fillColor=none;top=0;left=0;bottom=0;right=0;editable=1;overflow=hidden;whiteSpace=wrap;html=1;labelBackgroundColor=none;strokeColor=#788AA3;fontColor=#46495D;rounded=1;fontFamily=Georgia;" vertex="1" parent="nExtuXUVH1HOBiq4Qu6i-1">
          <mxGeometry width="30" height="30" as="geometry">
            <mxRectangle width="30" height="30" as="alternateBounds" />
          </mxGeometry>
        </mxCell>
        <mxCell id="nExtuXUVH1HOBiq4Qu6i-3" value="message" style="shape=partialRectangle;connectable=0;fillColor=none;top=0;left=0;bottom=0;right=0;align=left;spacingLeft=6;overflow=hidden;whiteSpace=wrap;html=1;labelBackgroundColor=none;strokeColor=#788AA3;fontColor=#46495D;rounded=1;strokeWidth=1;fontFamily=Georgia;" vertex="1" parent="nExtuXUVH1HOBiq4Qu6i-1">
          <mxGeometry x="30" width="150" height="30" as="geometry">
            <mxRectangle width="150" height="30" as="alternateBounds" />
          </mxGeometry>
        </mxCell>
        <mxCell id="CXDuRIByjEuDGlNMDxh7-328" value="" style="shape=tableRow;horizontal=0;startSize=0;swimlaneHead=0;swimlaneBody=0;fillColor=none;collapsible=0;dropTarget=0;points=[[0,0.5],[1,0.5]];portConstraint=eastwest;top=0;left=0;right=0;bottom=0;labelBackgroundColor=none;strokeColor=#788AA3;fontColor=#46495D;rounded=1;fontFamily=Georgia;" vertex="1" parent="CXDuRIByjEuDGlNMDxh7-321">
          <mxGeometry y="120" width="180" height="30" as="geometry" />
        </mxCell>
        <mxCell id="CXDuRIByjEuDGlNMDxh7-329" value="" style="shape=partialRectangle;connectable=0;fillColor=none;top=0;left=0;bottom=0;right=0;editable=1;overflow=hidden;whiteSpace=wrap;html=1;labelBackgroundColor=none;strokeColor=#788AA3;fontColor=#46495D;rounded=1;fontFamily=Georgia;" vertex="1" parent="CXDuRIByjEuDGlNMDxh7-328">
          <mxGeometry width="30" height="30" as="geometry">
            <mxRectangle width="30" height="30" as="alternateBounds" />
          </mxGeometry>
        </mxCell>
        <mxCell id="CXDuRIByjEuDGlNMDxh7-330" value="response" style="shape=partialRectangle;connectable=0;fillColor=none;top=0;left=0;bottom=0;right=0;align=left;spacingLeft=6;overflow=hidden;whiteSpace=wrap;html=1;labelBackgroundColor=none;strokeColor=#788AA3;fontColor=#46495D;rounded=1;fontFamily=Georgia;" vertex="1" parent="CXDuRIByjEuDGlNMDxh7-328">
          <mxGeometry x="30" width="150" height="30" as="geometry">
            <mxRectangle width="150" height="30" as="alternateBounds" />
          </mxGeometry>
        </mxCell>
        <mxCell id="CXDuRIByjEuDGlNMDxh7-331" value="" style="shape=tableRow;horizontal=0;startSize=0;swimlaneHead=0;swimlaneBody=0;fillColor=none;collapsible=0;dropTarget=0;points=[[0,0.5],[1,0.5]];portConstraint=eastwest;top=0;left=0;right=0;bottom=0;labelBackgroundColor=none;strokeColor=#788AA3;fontColor=#46495D;rounded=1;fontFamily=Georgia;" vertex="1" parent="CXDuRIByjEuDGlNMDxh7-321">
          <mxGeometry y="150" width="180" height="30" as="geometry" />
        </mxCell>
        <mxCell id="CXDuRIByjEuDGlNMDxh7-332" value="" style="shape=partialRectangle;connectable=0;fillColor=none;top=0;left=0;bottom=0;right=0;editable=1;overflow=hidden;whiteSpace=wrap;html=1;labelBackgroundColor=none;strokeColor=#788AA3;fontColor=#46495D;rounded=1;fontFamily=Georgia;" vertex="1" parent="CXDuRIByjEuDGlNMDxh7-331">
          <mxGeometry width="30" height="30" as="geometry">
            <mxRectangle width="30" height="30" as="alternateBounds" />
          </mxGeometry>
        </mxCell>
        <mxCell id="CXDuRIByjEuDGlNMDxh7-333" value="timestmp" style="shape=partialRectangle;connectable=0;fillColor=none;top=0;left=0;bottom=0;right=0;align=left;spacingLeft=6;overflow=hidden;whiteSpace=wrap;html=1;labelBackgroundColor=none;strokeColor=#788AA3;fontColor=#46495D;rounded=1;fontFamily=Georgia;" vertex="1" parent="CXDuRIByjEuDGlNMDxh7-331">
          <mxGeometry x="30" width="150" height="30" as="geometry">
            <mxRectangle width="150" height="30" as="alternateBounds" />
          </mxGeometry>
        </mxCell>
        <mxCell id="CXDuRIByjEuDGlNMDxh7-334" value="" style="edgeStyle=orthogonalEdgeStyle;fontSize=12;html=1;endArrow=ERmandOne;startArrow=ERzeroToMany;rounded=1;strokeColor=#82B366;fontColor=#46495D;fillColor=#B2C9AB;strokeWidth=2;startFill=0;fontFamily=Georgia;exitX=0;exitY=0.5;exitDx=0;exitDy=0;" edge="1" parent="1" source="CXDuRIByjEuDGlNMDxh7-81" target="KckVIJdAY4vBUgBkro1C-3">
          <mxGeometry width="100" height="100" relative="1" as="geometry">
            <mxPoint x="717" y="990" as="sourcePoint" />
            <mxPoint x="915" y="615" as="targetPoint" />
            <Array as="points">
              <mxPoint x="687" y="905" />
              <mxPoint x="687" y="530" />
            </Array>
          </mxGeometry>
        </mxCell>
        <mxCell id="CXDuRIByjEuDGlNMDxh7-335" value="" style="edgeStyle=orthogonalEdgeStyle;fontSize=12;html=1;endArrow=ERmandOne;startArrow=ERzeroToMany;rounded=1;strokeColor=#82B366;fontColor=#46495D;fillColor=#B2C9AB;strokeWidth=2;startFill=0;fontFamily=Georgia;exitX=1.004;exitY=0.637;exitDx=0;exitDy=0;exitPerimeter=0;entryX=-0.004;entryY=0.627;entryDx=0;entryDy=0;entryPerimeter=0;" edge="1" parent="1" source="CXDuRIByjEuDGlNMDxh7-325" target="CXDuRIByjEuDGlNMDxh7-84">
          <mxGeometry width="100" height="100" relative="1" as="geometry">
            <mxPoint x="735" y="1140" as="sourcePoint" />
            <mxPoint x="710" y="930" as="targetPoint" />
            <Array as="points" />
          </mxGeometry>
        </mxCell>
        <mxCell id="CXDuRIByjEuDGlNMDxh7-338" value="" style="edgeStyle=orthogonalEdgeStyle;fontSize=12;html=1;endArrow=ERmandOne;startArrow=ERzeroToOne;rounded=1;strokeColor=#D79B00;fontColor=#46495D;fillColor=#B2C9AB;strokeWidth=2;startFill=0;exitX=1;exitY=0.581;exitDx=0;exitDy=0;exitPerimeter=0;fontFamily=Georgia;entryX=1;entryY=0.667;entryDx=0;entryDy=0;entryPerimeter=0;" edge="1" parent="1" source="CXDuRIByjEuDGlNMDxh7-179" target="KckVIJdAY4vBUgBkro1C-42">
          <mxGeometry width="100" height="100" relative="1" as="geometry">
            <mxPoint x="657" y="705" as="sourcePoint" />
            <mxPoint x="915" y="540" as="targetPoint" />
            <Array as="points">
              <mxPoint x="670" y="737" />
              <mxPoint x="670" y="530" />
            </Array>
          </mxGeometry>
        </mxCell>
        <mxCell id="CXDuRIByjEuDGlNMDxh7-342" value="" style="edgeStyle=elbowEdgeStyle;fontSize=12;html=1;endArrow=ERmandOne;startArrow=ERzeroToMany;rounded=1;strokeColor=#d6b656;fontColor=#46495D;fillColor=#fff2cc;strokeWidth=2;startFill=0;fontFamily=Georgia;exitX=1.005;exitY=0.326;exitDx=0;exitDy=0;exitPerimeter=0;" edge="1" parent="1" source="CXDuRIByjEuDGlNMDxh7-339" target="CXDuRIByjEuDGlNMDxh7-28">
          <mxGeometry width="100" height="100" relative="1" as="geometry">
            <mxPoint x="1680" y="530" as="sourcePoint" />
            <mxPoint x="1515" y="600" as="targetPoint" />
          </mxGeometry>
        </mxCell>
        <mxCell id="CXDuRIByjEuDGlNMDxh7-344" value="" style="edgeStyle=orthogonalEdgeStyle;fontSize=12;html=1;endArrow=ERmandOne;startArrow=ERzeroToMany;rounded=1;strokeColor=#9673a6;fontColor=#46495D;fillColor=#e1d5e7;strokeWidth=2;startFill=0;fontFamily=Georgia;" edge="1" parent="1" target="KckVIJdAY4vBUgBkro1C-3">
          <mxGeometry width="100" height="100" relative="1" as="geometry">
            <mxPoint x="1110" y="340" as="sourcePoint" />
            <mxPoint x="900" y="555" as="targetPoint" />
            <Array as="points">
              <mxPoint x="940" y="340" />
              <mxPoint x="940" y="520" />
            </Array>
          </mxGeometry>
        </mxCell>
        <mxCell id="CXDuRIByjEuDGlNMDxh7-345" value="" style="edgeStyle=orthogonalEdgeStyle;fontSize=12;html=1;endArrow=ERmandOne;startArrow=ERzeroToOne;rounded=1;strokeColor=#9673a6;fontColor=#46495D;fillColor=#e1d5e7;strokeWidth=2;fontFamily=Georgia;startFill=0;" edge="1" parent="1" source="CXDuRIByjEuDGlNMDxh7-201">
          <mxGeometry width="100" height="100" relative="1" as="geometry">
            <mxPoint x="1184.9999999999995" y="359.97" as="sourcePoint" />
            <mxPoint x="1500" y="520" as="targetPoint" />
            <Array as="points">
              <mxPoint x="1467" y="310" />
              <mxPoint x="1467" y="520" />
            </Array>
          </mxGeometry>
        </mxCell>
        <mxCell id="lQcV0rLCLob2I8ij3lz1-14" value="" style="edgeStyle=orthogonalEdgeStyle;fontSize=12;html=1;endArrow=ERmandOne;startArrow=ERzeroToMany;rounded=1;strokeColor=#d6b656;fontColor=#46495D;fillColor=#fff2cc;strokeWidth=2;startFill=0;endFill=0;fontFamily=Georgia;exitX=0.999;exitY=0.443;exitDx=0;exitDy=0;exitPerimeter=0;entryX=0;entryY=0.5;entryDx=0;entryDy=0;" edge="1" parent="1" source="d5lCtr-DyPGRIG8KfV5i-1" target="wfsIE8BeTLHIZx1xOHiM-37">
          <mxGeometry width="100" height="100" relative="1" as="geometry">
            <mxPoint x="1680" y="520" as="sourcePoint" />
            <mxPoint x="1750" y="520" as="targetPoint" />
            <Array as="points">
              <mxPoint x="1730" y="583" />
              <mxPoint x="1730" y="555" />
            </Array>
          </mxGeometry>
        </mxCell>
        <mxCell id="lQcV0rLCLob2I8ij3lz1-665" value="&lt;div align=&quot;center&quot;&gt;&lt;u&gt;&lt;b&gt;&lt;font style=&quot;font-size: 24px;&quot;&gt;BITS UNPLUGGED&lt;/font&gt;&lt;/b&gt;&lt;/u&gt;&lt;/div&gt;&lt;div align=&quot;center&quot;&gt;&lt;font style=&quot;font-size: 14px;&quot;&gt;19050&lt;font&gt;61 - Nazmus Sakib&lt;/font&gt;&lt;/font&gt;&lt;/div&gt;&lt;div align=&quot;center&quot;&gt;&lt;font style=&quot;font-size: 14px;&quot;&gt;&lt;font&gt;1905064 - Sayem Shahad Soummo&lt;/font&gt;&lt;/font&gt;&lt;/div&gt;&lt;div align=&quot;center&quot;&gt;&lt;font style=&quot;font-size: 14px;&quot;&gt;&lt;font&gt;1905065 - Arnab Bhattacharjee&lt;/font&gt;&lt;/font&gt;&lt;/div&gt;&lt;div align=&quot;center&quot;&gt;&lt;font style=&quot;font-size: 14px;&quot;&gt;&lt;font&gt;&lt;b&gt;1905072 - Mahir Labib Dihan&lt;/b&gt;&lt;/font&gt;&lt;/font&gt;&lt;/div&gt;&lt;div align=&quot;center&quot;&gt;&lt;font style=&quot;font-size: 14px;&quot;&gt;&lt;font&gt;1905073 - Souvik Ghosh&lt;/font&gt;&lt;/font&gt;&lt;/div&gt;&lt;div align=&quot;center&quot;&gt;&lt;font style=&quot;font-size: 14px;&quot;&gt;&lt;font&gt;1905079 - Salman Sayeed&lt;/font&gt;&lt;/font&gt;&lt;font&gt;&lt;b&gt;&lt;font style=&quot;font-size: 14px;&quot;&gt;&lt;font&gt;&lt;br&gt;&lt;/font&gt;&lt;/font&gt;&lt;/b&gt;&lt;/font&gt;&lt;/div&gt;" style="rounded=0;whiteSpace=wrap;html=1;align=center;fillColor=#ffe6cc;strokeColor=#d79b00;fontFamily=Georgia;" vertex="1" parent="1">
          <mxGeometry x="60" y="60" width="300" height="180" as="geometry" />
        </mxCell>
        <mxCell id="AujnL7_Zl_7fxigJMQ9i-1" value="ProblemSetter" style="shape=table;startSize=30;container=1;collapsible=1;childLayout=tableLayout;fixedRows=1;rowLines=0;fontStyle=1;align=center;resizeLast=1;html=1;labelBackgroundColor=none;fillColor=#dae8fc;strokeColor=#6c8ebf;rounded=1;strokeWidth=2;fontFamily=Georgia;" vertex="1" parent="1">
          <mxGeometry x="460" y="330" width="180" height="120" as="geometry" />
        </mxCell>
        <mxCell id="AujnL7_Zl_7fxigJMQ9i-2" value="" style="shape=tableRow;horizontal=0;startSize=0;swimlaneHead=0;swimlaneBody=0;fillColor=none;collapsible=0;dropTarget=0;points=[[0,0.5],[1,0.5]];portConstraint=eastwest;top=0;left=0;right=0;bottom=1;labelBackgroundColor=none;strokeColor=#788AA3;fontColor=#46495D;rounded=1;fontFamily=Georgia;" vertex="1" parent="AujnL7_Zl_7fxigJMQ9i-1">
          <mxGeometry y="30" width="180" height="30" as="geometry" />
        </mxCell>
        <mxCell id="AujnL7_Zl_7fxigJMQ9i-3" value="PK" style="shape=partialRectangle;connectable=0;fillColor=none;top=0;left=0;bottom=0;right=0;fontStyle=1;overflow=hidden;whiteSpace=wrap;html=1;labelBackgroundColor=none;strokeColor=#788AA3;fontColor=#46495D;rounded=1;fontFamily=Georgia;" vertex="1" parent="AujnL7_Zl_7fxigJMQ9i-2">
          <mxGeometry width="30" height="30" as="geometry">
            <mxRectangle width="30" height="30" as="alternateBounds" />
          </mxGeometry>
        </mxCell>
        <mxCell id="AujnL7_Zl_7fxigJMQ9i-4" value="author_id" style="shape=partialRectangle;connectable=0;fillColor=none;top=0;left=0;bottom=0;right=0;align=left;spacingLeft=6;fontStyle=5;overflow=hidden;whiteSpace=wrap;html=1;labelBackgroundColor=none;strokeColor=#788AA3;fontColor=#46495D;rounded=1;strokeWidth=0;fontFamily=Georgia;" vertex="1" parent="AujnL7_Zl_7fxigJMQ9i-2">
          <mxGeometry x="30" width="150" height="30" as="geometry">
            <mxRectangle width="150" height="30" as="alternateBounds" />
          </mxGeometry>
        </mxCell>
        <mxCell id="AujnL7_Zl_7fxigJMQ9i-5" value="" style="shape=tableRow;horizontal=0;startSize=0;swimlaneHead=0;swimlaneBody=0;fillColor=none;collapsible=0;dropTarget=0;points=[[0,0.5],[1,0.5]];portConstraint=eastwest;top=0;left=0;right=0;bottom=0;labelBackgroundColor=none;strokeColor=#788AA3;fontColor=#46495D;rounded=1;fontFamily=Georgia;" vertex="1" parent="AujnL7_Zl_7fxigJMQ9i-1">
          <mxGeometry y="60" width="180" height="30" as="geometry" />
        </mxCell>
        <mxCell id="AujnL7_Zl_7fxigJMQ9i-6" value="" style="shape=partialRectangle;connectable=0;fillColor=none;top=0;left=0;bottom=0;right=0;editable=1;overflow=hidden;whiteSpace=wrap;html=1;labelBackgroundColor=none;strokeColor=#788AA3;fontColor=#46495D;rounded=1;fontFamily=Georgia;" vertex="1" parent="AujnL7_Zl_7fxigJMQ9i-5">
          <mxGeometry width="30" height="30" as="geometry">
            <mxRectangle width="30" height="30" as="alternateBounds" />
          </mxGeometry>
        </mxCell>
        <mxCell id="AujnL7_Zl_7fxigJMQ9i-7" value="approved" style="shape=partialRectangle;connectable=0;fillColor=none;top=0;left=0;bottom=0;right=0;align=left;spacingLeft=6;overflow=hidden;whiteSpace=wrap;html=1;labelBackgroundColor=none;strokeColor=#788AA3;fontColor=#46495D;rounded=1;fontFamily=Georgia;" vertex="1" parent="AujnL7_Zl_7fxigJMQ9i-5">
          <mxGeometry x="30" width="150" height="30" as="geometry">
            <mxRectangle width="150" height="30" as="alternateBounds" />
          </mxGeometry>
        </mxCell>
        <mxCell id="AujnL7_Zl_7fxigJMQ9i-8" value="" style="shape=tableRow;horizontal=0;startSize=0;swimlaneHead=0;swimlaneBody=0;fillColor=none;collapsible=0;dropTarget=0;points=[[0,0.5],[1,0.5]];portConstraint=eastwest;top=0;left=0;right=0;bottom=0;labelBackgroundColor=none;strokeColor=#788AA3;fontColor=#46495D;rounded=1;fontFamily=Georgia;" vertex="1" parent="AujnL7_Zl_7fxigJMQ9i-1">
          <mxGeometry y="90" width="180" height="30" as="geometry" />
        </mxCell>
        <mxCell id="AujnL7_Zl_7fxigJMQ9i-9" value="" style="shape=partialRectangle;connectable=0;fillColor=none;top=0;left=0;bottom=0;right=0;editable=1;overflow=hidden;whiteSpace=wrap;html=1;labelBackgroundColor=none;strokeColor=#457B9D;fontColor=#46495D;rounded=1;fontFamily=Georgia;" vertex="1" parent="AujnL7_Zl_7fxigJMQ9i-8">
          <mxGeometry width="30" height="30" as="geometry">
            <mxRectangle width="30" height="30" as="alternateBounds" />
          </mxGeometry>
        </mxCell>
        <mxCell id="AujnL7_Zl_7fxigJMQ9i-10" value="&lt;div&gt;profession&lt;/div&gt;" style="shape=partialRectangle;connectable=0;fillColor=none;top=0;left=0;bottom=0;right=0;align=left;spacingLeft=6;overflow=hidden;whiteSpace=wrap;html=1;labelBackgroundColor=none;strokeColor=#788AA3;fontColor=#46495D;rounded=1;fontFamily=Georgia;" vertex="1" parent="AujnL7_Zl_7fxigJMQ9i-8">
          <mxGeometry x="30" width="150" height="30" as="geometry">
            <mxRectangle width="150" height="30" as="alternateBounds" />
          </mxGeometry>
        </mxCell>
        <mxCell id="AujnL7_Zl_7fxigJMQ9i-27" value="" style="edgeStyle=orthogonalEdgeStyle;fontSize=12;html=1;endArrow=ERmandOne;startArrow=ERzeroToMany;rounded=1;strokeColor=#6c8ebf;fontColor=#46495D;fillColor=#dae8fc;strokeWidth=2;startFill=0;endFill=0;fontFamily=Georgia;entryX=1;entryY=0.5;entryDx=0;entryDy=0;exitX=0.002;exitY=0.662;exitDx=0;exitDy=0;exitPerimeter=0;" edge="1" parent="1" source="AujnL7_Zl_7fxigJMQ9i-23" target="AujnL7_Zl_7fxigJMQ9i-2">
          <mxGeometry width="100" height="100" relative="1" as="geometry">
            <mxPoint x="1227.52" y="581.6700000000001" as="sourcePoint" />
            <mxPoint x="760.0000000000001" y="375" as="targetPoint" />
            <Array as="points">
              <mxPoint x="1220" y="590" />
              <mxPoint x="1220" y="460" />
              <mxPoint x="670" y="460" />
              <mxPoint x="670" y="375" />
            </Array>
          </mxGeometry>
        </mxCell>
        <mxCell id="AujnL7_Zl_7fxigJMQ9i-28" value="" style="edgeStyle=orthogonalEdgeStyle;fontSize=12;html=1;endArrow=ERmandOne;startArrow=ERmandOne;rounded=1;strokeColor=#6c8ebf;fontColor=#46495D;fillColor=#dae8fc;strokeWidth=2;fontFamily=Georgia;exitX=1.004;exitY=0.816;exitDx=0;exitDy=0;entryX=0.001;entryY=0.093;entryDx=0;entryDy=0;entryPerimeter=0;exitPerimeter=0;" edge="1" parent="1" source="AujnL7_Zl_7fxigJMQ9i-2" target="KckVIJdAY4vBUgBkro1C-3">
          <mxGeometry width="100" height="100" relative="1" as="geometry">
            <mxPoint x="240" y="375" as="sourcePoint" />
            <mxPoint x="420" y="525" as="targetPoint" />
            <Array as="points">
              <mxPoint x="660" y="385" />
              <mxPoint x="660" y="513" />
            </Array>
          </mxGeometry>
        </mxCell>
        <mxCell id="wfsIE8BeTLHIZx1xOHiM-33" value="AlgoTool" style="shape=table;startSize=30;container=1;collapsible=1;childLayout=tableLayout;fixedRows=1;rowLines=0;fontStyle=1;align=center;resizeLast=1;html=1;whiteSpace=wrap;rounded=1;strokeColor=#d6b656;fillColor=#fff2cc;strokeWidth=2;fontFamily=Georgia;" vertex="1" parent="1">
          <mxGeometry x="1752" y="480" width="180" height="120" as="geometry" />
        </mxCell>
        <mxCell id="wfsIE8BeTLHIZx1xOHiM-34" value="" style="shape=tableRow;horizontal=0;startSize=0;swimlaneHead=0;swimlaneBody=0;fillColor=none;collapsible=0;dropTarget=0;points=[[0,0.5],[1,0.5]];portConstraint=eastwest;top=0;left=0;right=0;bottom=0;html=1;rounded=1;strokeColor=#788AA3;fontColor=#46495D;fontFamily=Georgia;" vertex="1" parent="wfsIE8BeTLHIZx1xOHiM-33">
          <mxGeometry y="30" width="180" height="30" as="geometry" />
        </mxCell>
        <mxCell id="wfsIE8BeTLHIZx1xOHiM-35" value="PK,FK1" style="shape=partialRectangle;connectable=0;fillColor=none;top=0;left=0;bottom=0;right=0;fontStyle=1;overflow=hidden;html=1;whiteSpace=wrap;rounded=1;strokeColor=#788AA3;fontColor=#46495D;fontFamily=Georgia;" vertex="1" parent="wfsIE8BeTLHIZx1xOHiM-34">
          <mxGeometry width="60" height="30" as="geometry">
            <mxRectangle width="60" height="30" as="alternateBounds" />
          </mxGeometry>
        </mxCell>
        <mxCell id="wfsIE8BeTLHIZx1xOHiM-36" value="tool_id" style="shape=partialRectangle;connectable=0;fillColor=none;top=0;left=0;bottom=0;right=0;align=left;spacingLeft=6;fontStyle=5;overflow=hidden;html=1;whiteSpace=wrap;rounded=1;strokeColor=#788AA3;fontColor=#46495D;fontFamily=Georgia;" vertex="1" parent="wfsIE8BeTLHIZx1xOHiM-34">
          <mxGeometry x="60" width="120" height="30" as="geometry">
            <mxRectangle width="120" height="30" as="alternateBounds" />
          </mxGeometry>
        </mxCell>
        <mxCell id="wfsIE8BeTLHIZx1xOHiM-37" value="" style="shape=tableRow;horizontal=0;startSize=0;swimlaneHead=0;swimlaneBody=0;fillColor=none;collapsible=0;dropTarget=0;points=[[0,0.5],[1,0.5]];portConstraint=eastwest;top=0;left=0;right=0;bottom=1;html=1;rounded=1;strokeColor=#788AA3;fontColor=#46495D;fontFamily=Georgia;" vertex="1" parent="wfsIE8BeTLHIZx1xOHiM-33">
          <mxGeometry y="60" width="180" height="30" as="geometry" />
        </mxCell>
        <mxCell id="wfsIE8BeTLHIZx1xOHiM-38" value="PK,FK2" style="shape=partialRectangle;connectable=0;fillColor=none;top=0;left=0;bottom=0;right=0;fontStyle=1;overflow=hidden;html=1;whiteSpace=wrap;rounded=1;strokeColor=#788AA3;fontColor=#46495D;fontFamily=Georgia;" vertex="1" parent="wfsIE8BeTLHIZx1xOHiM-37">
          <mxGeometry width="60" height="30" as="geometry">
            <mxRectangle width="60" height="30" as="alternateBounds" />
          </mxGeometry>
        </mxCell>
        <mxCell id="wfsIE8BeTLHIZx1xOHiM-39" value="algo_id" style="shape=partialRectangle;connectable=0;fillColor=none;top=0;left=0;bottom=0;right=0;align=left;spacingLeft=6;fontStyle=5;overflow=hidden;html=1;whiteSpace=wrap;rounded=1;strokeColor=#788AA3;fontColor=#46495D;fontFamily=Georgia;" vertex="1" parent="wfsIE8BeTLHIZx1xOHiM-37">
          <mxGeometry x="60" width="120" height="30" as="geometry">
            <mxRectangle width="120" height="30" as="alternateBounds" />
          </mxGeometry>
        </mxCell>
        <mxCell id="wfsIE8BeTLHIZx1xOHiM-40" value="" style="shape=tableRow;horizontal=0;startSize=0;swimlaneHead=0;swimlaneBody=0;fillColor=none;collapsible=0;dropTarget=0;points=[[0,0.5],[1,0.5]];portConstraint=eastwest;top=0;left=0;right=0;bottom=0;html=1;rounded=1;strokeColor=#788AA3;fontColor=#46495D;fontFamily=Georgia;" vertex="1" parent="wfsIE8BeTLHIZx1xOHiM-33">
          <mxGeometry y="90" width="180" height="30" as="geometry" />
        </mxCell>
        <mxCell id="wfsIE8BeTLHIZx1xOHiM-41" value="" style="shape=partialRectangle;connectable=0;fillColor=none;top=0;left=0;bottom=0;right=0;editable=1;overflow=hidden;html=1;whiteSpace=wrap;rounded=1;strokeColor=#788AA3;fontColor=#46495D;fontFamily=Georgia;" vertex="1" parent="wfsIE8BeTLHIZx1xOHiM-40">
          <mxGeometry width="60" height="30" as="geometry">
            <mxRectangle width="60" height="30" as="alternateBounds" />
          </mxGeometry>
        </mxCell>
        <mxCell id="wfsIE8BeTLHIZx1xOHiM-42" value="max_limit" style="shape=partialRectangle;connectable=0;fillColor=none;top=0;left=0;bottom=0;right=0;align=left;spacingLeft=6;overflow=hidden;html=1;whiteSpace=wrap;rounded=1;strokeColor=#788AA3;fontColor=#46495D;fontFamily=Georgia;" vertex="1" parent="wfsIE8BeTLHIZx1xOHiM-40">
          <mxGeometry x="60" width="120" height="30" as="geometry">
            <mxRectangle width="120" height="30" as="alternateBounds" />
          </mxGeometry>
        </mxCell>
        <mxCell id="wfsIE8BeTLHIZx1xOHiM-58" value="Tool" style="shape=table;startSize=30;container=1;collapsible=1;childLayout=tableLayout;fixedRows=1;rowLines=0;fontStyle=1;align=center;resizeLast=1;html=1;labelBackgroundColor=none;fillColor=#fff2cc;strokeColor=#d6b656;rounded=1;strokeWidth=2;fontFamily=Georgia;" vertex="1" parent="1">
          <mxGeometry x="1752" y="640" width="180" height="150" as="geometry" />
        </mxCell>
        <mxCell id="wfsIE8BeTLHIZx1xOHiM-59" value="" style="shape=tableRow;horizontal=0;startSize=0;swimlaneHead=0;swimlaneBody=0;fillColor=none;collapsible=0;dropTarget=0;points=[[0,0.5],[1,0.5]];portConstraint=eastwest;top=0;left=0;right=0;bottom=1;labelBackgroundColor=none;strokeColor=#788AA3;fontColor=#46495D;rounded=1;fontFamily=Georgia;" vertex="1" parent="wfsIE8BeTLHIZx1xOHiM-58">
          <mxGeometry y="30" width="180" height="30" as="geometry" />
        </mxCell>
        <mxCell id="wfsIE8BeTLHIZx1xOHiM-60" value="PK" style="shape=partialRectangle;connectable=0;fillColor=none;top=0;left=0;bottom=0;right=0;fontStyle=1;overflow=hidden;whiteSpace=wrap;html=1;labelBackgroundColor=none;strokeColor=#788AA3;fontColor=#46495D;rounded=1;fontFamily=Georgia;" vertex="1" parent="wfsIE8BeTLHIZx1xOHiM-59">
          <mxGeometry width="30" height="30" as="geometry">
            <mxRectangle width="30" height="30" as="alternateBounds" />
          </mxGeometry>
        </mxCell>
        <mxCell id="wfsIE8BeTLHIZx1xOHiM-61" value="tool_id" style="shape=partialRectangle;connectable=0;fillColor=none;top=0;left=0;bottom=0;right=0;align=left;spacingLeft=6;fontStyle=5;overflow=hidden;whiteSpace=wrap;html=1;labelBackgroundColor=none;strokeColor=#457B9D;fontColor=#46495D;rounded=1;strokeWidth=2;fontFamily=Georgia;" vertex="1" parent="wfsIE8BeTLHIZx1xOHiM-59">
          <mxGeometry x="30" width="150" height="30" as="geometry">
            <mxRectangle width="150" height="30" as="alternateBounds" />
          </mxGeometry>
        </mxCell>
        <mxCell id="wfsIE8BeTLHIZx1xOHiM-62" value="" style="shape=tableRow;horizontal=0;startSize=0;swimlaneHead=0;swimlaneBody=0;fillColor=none;collapsible=0;dropTarget=0;points=[[0,0.5],[1,0.5]];portConstraint=eastwest;top=0;left=0;right=0;bottom=0;labelBackgroundColor=none;strokeColor=#788AA3;fontColor=#46495D;rounded=1;fontFamily=Georgia;" vertex="1" parent="wfsIE8BeTLHIZx1xOHiM-58">
          <mxGeometry y="60" width="180" height="30" as="geometry" />
        </mxCell>
        <mxCell id="wfsIE8BeTLHIZx1xOHiM-63" value="" style="shape=partialRectangle;connectable=0;fillColor=none;top=0;left=0;bottom=0;right=0;editable=1;overflow=hidden;whiteSpace=wrap;html=1;labelBackgroundColor=none;strokeColor=#788AA3;fontColor=#46495D;rounded=1;fontFamily=Georgia;" vertex="1" parent="wfsIE8BeTLHIZx1xOHiM-62">
          <mxGeometry width="30" height="30" as="geometry">
            <mxRectangle width="30" height="30" as="alternateBounds" />
          </mxGeometry>
        </mxCell>
        <mxCell id="wfsIE8BeTLHIZx1xOHiM-64" value="name" style="shape=partialRectangle;connectable=0;fillColor=none;top=0;left=0;bottom=0;right=0;align=left;spacingLeft=6;overflow=hidden;whiteSpace=wrap;html=1;labelBackgroundColor=none;strokeColor=#788AA3;fontColor=#46495D;rounded=1;strokeWidth=1;fontFamily=Georgia;" vertex="1" parent="wfsIE8BeTLHIZx1xOHiM-62">
          <mxGeometry x="30" width="150" height="30" as="geometry">
            <mxRectangle width="150" height="30" as="alternateBounds" />
          </mxGeometry>
        </mxCell>
        <mxCell id="wfsIE8BeTLHIZx1xOHiM-65" value="" style="shape=tableRow;horizontal=0;startSize=0;swimlaneHead=0;swimlaneBody=0;fillColor=none;collapsible=0;dropTarget=0;points=[[0,0.5],[1,0.5]];portConstraint=eastwest;top=0;left=0;right=0;bottom=0;labelBackgroundColor=none;strokeColor=#788AA3;fontColor=#46495D;rounded=1;fontFamily=Georgia;" vertex="1" parent="wfsIE8BeTLHIZx1xOHiM-58">
          <mxGeometry y="90" width="180" height="30" as="geometry" />
        </mxCell>
        <mxCell id="wfsIE8BeTLHIZx1xOHiM-66" value="" style="shape=partialRectangle;connectable=0;fillColor=none;top=0;left=0;bottom=0;right=0;editable=1;overflow=hidden;whiteSpace=wrap;html=1;labelBackgroundColor=none;strokeColor=#788AA3;fontColor=#46495D;rounded=1;fontFamily=Georgia;" vertex="1" parent="wfsIE8BeTLHIZx1xOHiM-65">
          <mxGeometry width="30" height="30" as="geometry">
            <mxRectangle width="30" height="30" as="alternateBounds" />
          </mxGeometry>
        </mxCell>
        <mxCell id="wfsIE8BeTLHIZx1xOHiM-67" value="info" style="shape=partialRectangle;connectable=0;fillColor=none;top=0;left=0;bottom=0;right=0;align=left;spacingLeft=6;overflow=hidden;whiteSpace=wrap;html=1;labelBackgroundColor=none;strokeColor=#788AA3;fontColor=#46495D;rounded=1;fontFamily=Georgia;" vertex="1" parent="wfsIE8BeTLHIZx1xOHiM-65">
          <mxGeometry x="30" width="150" height="30" as="geometry">
            <mxRectangle width="150" height="30" as="alternateBounds" />
          </mxGeometry>
        </mxCell>
        <mxCell id="wfsIE8BeTLHIZx1xOHiM-68" value="" style="shape=tableRow;horizontal=0;startSize=0;swimlaneHead=0;swimlaneBody=0;fillColor=none;collapsible=0;dropTarget=0;points=[[0,0.5],[1,0.5]];portConstraint=eastwest;top=0;left=0;right=0;bottom=0;labelBackgroundColor=none;strokeColor=#788AA3;fontColor=#46495D;rounded=1;fontFamily=Georgia;" vertex="1" parent="wfsIE8BeTLHIZx1xOHiM-58">
          <mxGeometry y="120" width="180" height="30" as="geometry" />
        </mxCell>
        <mxCell id="wfsIE8BeTLHIZx1xOHiM-69" value="" style="shape=partialRectangle;connectable=0;fillColor=none;top=0;left=0;bottom=0;right=0;editable=1;overflow=hidden;whiteSpace=wrap;html=1;labelBackgroundColor=none;strokeColor=#788AA3;fontColor=#46495D;rounded=1;fontFamily=Georgia;" vertex="1" parent="wfsIE8BeTLHIZx1xOHiM-68">
          <mxGeometry width="30" height="30" as="geometry">
            <mxRectangle width="30" height="30" as="alternateBounds" />
          </mxGeometry>
        </mxCell>
        <mxCell id="wfsIE8BeTLHIZx1xOHiM-70" value="icon" style="shape=partialRectangle;connectable=0;fillColor=none;top=0;left=0;bottom=0;right=0;align=left;spacingLeft=6;overflow=hidden;whiteSpace=wrap;html=1;labelBackgroundColor=none;strokeColor=#788AA3;fontColor=#46495D;rounded=1;fontFamily=Georgia;" vertex="1" parent="wfsIE8BeTLHIZx1xOHiM-68">
          <mxGeometry x="30" width="150" height="30" as="geometry">
            <mxRectangle width="150" height="30" as="alternateBounds" />
          </mxGeometry>
        </mxCell>
        <mxCell id="wfsIE8BeTLHIZx1xOHiM-71" value="" style="edgeStyle=orthogonalEdgeStyle;fontSize=12;html=1;endArrow=ERmandOne;startArrow=ERzeroToMany;rounded=1;strokeColor=#d6b656;fontColor=#46495D;fillColor=#fff2cc;strokeWidth=2;startFill=0;endFill=0;fontFamily=Georgia;entryX=1;entryY=0.5;entryDx=0;entryDy=0;exitX=1;exitY=0.5;exitDx=0;exitDy=0;" edge="1" parent="1" source="wfsIE8BeTLHIZx1xOHiM-59" target="wfsIE8BeTLHIZx1xOHiM-34">
          <mxGeometry width="100" height="100" relative="1" as="geometry">
            <mxPoint x="1950" y="530" as="sourcePoint" />
            <mxPoint x="1762" y="565" as="targetPoint" />
            <Array as="points">
              <mxPoint x="1970" y="685" />
              <mxPoint x="1970" y="525" />
            </Array>
          </mxGeometry>
        </mxCell>
      </root>
    </mxGraphModel>
  </diagram>
</mxfile>
